<svg width="1889" height="342" viewBox="0 0 1889 342" fill="none" xmlns="http://www.w3.org/2000/svg">
<g clip-path="url(#clip0_1_39)">
<g clip-path="url(#clip1_1_39)">
<path d="M88.2417 230.397C88.2417 230.397 61.3037 227.986 50.5724 248.355C50.5724 248.355 60.6467 251.857 65.684 250.763C65.684 250.763 45.097 275.291 47.9442 293.906C47.9442 293.906 75.5394 292.155 86.4896 277.702C86.4896 277.702 87.5847 284.491 85.3945 290.623C85.3945 290.623 108.828 281.642 111.676 253.831L88.2417 230.397Z" fill="#EC7100"/>
<path d="M185.288 237.51C203.89 227.979 220.733 215.636 235.295 201.077C262.238 174.131 281.377 139.592 289.441 101.186C291.968 89.1748 293.408 76.7875 293.661 64.137L294.058 44.5233L274.441 44.9166C261.79 45.1696 249.403 46.6094 237.392 49.1368C178.236 61.5548 128.25 100.276 101.078 153.296C101.079 153.296 101.079 153.293 101.079 153.293C88.1951 152.623 60.884 157.034 45.4219 202.131L84.285 199.316C83.1636 204.186 82.2125 209.124 81.4488 214.131L124.451 257.134C129.459 256.372 134.397 255.418 139.265 254.296L136.449 293.161C181.533 277.702 185.955 250.4 185.288 237.51Z" fill="url(#paint0_linear_1_39)"/>
<path d="M172.186 113.761C186.721 99.2262 210.285 99.2262 224.82 113.761C239.355 128.296 239.355 151.86 224.82 166.395C210.285 180.93 186.721 180.93 172.186 166.395C157.652 151.86 157.652 128.296 172.186 113.761Z" fill="white"/>
</g>
<path d="M380.579 265V76.6364H451.215C465.686 76.6364 477.826 79.1503 487.637 84.1783C497.509 89.2062 504.959 96.2576 509.987 105.332C515.076 114.346 517.621 124.862 517.621 136.88C517.621 148.959 515.045 159.444 509.895 168.335C504.806 177.164 497.294 184.001 487.361 188.845C477.428 193.628 465.226 196.019 450.755 196.019H400.445V167.691H446.157C454.618 167.691 461.547 166.526 466.943 164.196C472.339 161.805 476.324 158.34 478.9 153.803C481.536 149.204 482.854 143.563 482.854 136.88C482.854 130.196 481.536 124.494 478.9 119.772C476.263 114.99 472.247 111.372 466.851 108.919C461.455 106.405 454.496 105.148 445.973 105.148H414.701V265H380.579ZM477.888 179.648L524.519 265H486.441L440.638 179.648H477.888ZM607.158 267.759C593.362 267.759 581.405 264.724 571.288 258.654C561.171 252.583 553.322 244.091 547.742 233.177C542.224 222.263 539.465 209.509 539.465 194.915C539.465 180.322 542.224 167.538 547.742 156.562C553.322 145.587 561.171 137.064 571.288 130.993C581.405 124.923 593.362 121.888 607.158 121.888C620.954 121.888 632.911 124.923 643.028 130.993C653.145 137.064 660.963 145.587 666.481 156.562C672.061 167.538 674.851 180.322 674.851 194.915C674.851 209.509 672.061 222.263 666.481 233.177C660.963 244.091 653.145 252.583 643.028 258.654C632.911 264.724 620.954 267.759 607.158 267.759ZM607.342 241.087C614.822 241.087 621.077 239.033 626.105 234.924C631.133 230.755 634.873 225.175 637.325 218.185C639.839 211.195 641.096 203.408 641.096 194.824C641.096 186.178 639.839 178.36 637.325 171.37C634.873 164.319 631.133 158.708 626.105 154.539C621.077 150.369 614.822 148.284 607.342 148.284C599.677 148.284 593.3 150.369 588.211 154.539C583.183 158.708 579.412 164.319 576.898 171.37C574.446 178.36 573.219 186.178 573.219 194.824C573.219 203.408 574.446 211.195 576.898 218.185C579.412 225.175 583.183 230.755 588.211 234.924C593.3 239.033 599.677 241.087 607.342 241.087ZM764.733 267.759C750.63 267.759 738.52 264.663 728.403 258.47C718.347 252.277 710.591 243.723 705.134 232.809C699.738 221.833 697.04 209.202 697.04 194.915C697.04 180.567 699.799 167.906 705.318 156.93C710.836 145.893 718.623 137.309 728.679 131.177C738.796 124.984 750.753 121.888 764.549 121.888C776.015 121.888 786.163 124.003 794.993 128.234C803.883 132.404 810.966 138.321 816.239 145.985C821.512 153.588 824.516 162.479 825.252 172.658H793.429C792.141 165.852 789.076 160.18 784.232 155.642C779.449 151.044 773.041 148.744 765.009 148.744C758.203 148.744 752.225 150.584 747.074 154.263C741.923 157.88 737.907 163.092 735.025 169.898C732.205 176.705 730.794 184.86 730.794 194.364C730.794 203.99 732.205 212.268 735.025 219.197C737.846 226.064 741.801 231.368 746.89 235.108C752.041 238.787 758.08 240.627 765.009 240.627C769.914 240.627 774.298 239.707 778.161 237.868C782.086 235.967 785.366 233.238 788.003 229.682C790.639 226.125 792.448 221.803 793.429 216.713H825.252C824.455 226.708 821.512 235.568 816.423 243.294C811.333 250.959 804.405 256.968 795.636 261.321C786.868 265.613 776.567 267.759 764.733 267.759ZM882.943 220.668L882.851 180.475H888.186L938.956 123.727H977.861L915.41 193.26H908.512L882.943 220.668ZM852.592 265V76.6364H885.886V265H852.592ZM941.255 265L895.268 200.71L917.71 177.256L981.08 265H941.255ZM1056.77 267.759C1042.61 267.759 1030.38 264.816 1020.08 258.93C1009.84 252.982 1001.96 244.582 996.44 233.729C990.921 222.814 988.162 209.969 988.162 195.191C988.162 180.659 990.921 167.906 996.44 156.93C1002.02 145.893 1009.81 137.309 1019.8 131.177C1029.8 124.984 1041.54 121.888 1055.03 121.888C1063.73 121.888 1071.95 123.298 1079.68 126.119C1087.46 128.878 1094.33 133.17 1100.28 138.995C1106.29 144.82 1111.01 152.239 1114.44 161.253C1117.88 170.205 1119.59 180.874 1119.59 193.26V203.469H1003.8V181.027H1087.68C1087.62 174.65 1086.24 168.979 1083.54 164.012C1080.84 158.984 1077.07 155.029 1072.23 152.147C1067.44 149.266 1061.86 147.825 1055.49 147.825C1048.68 147.825 1042.7 149.48 1037.55 152.791C1032.4 156.041 1028.39 160.333 1025.5 165.668C1022.68 170.941 1021.24 176.735 1021.18 183.051V202.641C1021.18 210.858 1022.68 217.909 1025.69 223.795C1028.69 229.621 1032.89 234.097 1038.29 237.224C1043.68 240.29 1050 241.822 1057.23 241.822C1062.08 241.822 1066.46 241.148 1070.39 239.799C1074.31 238.389 1077.71 236.335 1080.6 233.637C1083.48 230.939 1085.65 227.597 1087.13 223.612L1118.21 227.107C1116.25 235.323 1112.51 242.497 1106.99 248.629C1101.54 254.699 1094.55 259.42 1086.02 262.793C1077.5 266.104 1067.75 267.759 1056.77 267.759ZM1218.3 123.727V149.48H1137.09V123.727H1218.3ZM1157.14 89.8807H1190.44V222.508C1190.44 226.984 1191.11 230.418 1192.46 232.809C1193.87 235.139 1195.71 236.733 1197.98 237.592C1200.25 238.45 1202.76 238.879 1205.52 238.879C1207.61 238.879 1209.51 238.726 1211.22 238.419C1213 238.113 1214.35 237.837 1215.27 237.592L1220.88 263.62C1219.1 264.234 1216.56 264.908 1213.25 265.644C1210 266.38 1206.01 266.809 1201.29 266.931C1192.95 267.177 1185.44 265.92 1178.76 263.161C1172.07 260.34 1166.77 255.987 1162.84 250.1C1158.98 244.214 1157.08 236.856 1157.14 228.026V89.8807ZM1250.66 265V76.6364H1284.78V236.396H1367.74V265H1250.66ZM1436.54 267.851C1427.59 267.851 1419.52 266.257 1412.35 263.069C1405.24 259.819 1399.59 255.036 1395.42 248.721C1391.32 242.405 1389.26 234.618 1389.26 225.359C1389.26 217.388 1390.73 210.796 1393.68 205.585C1396.62 200.373 1400.64 196.203 1405.73 193.076C1410.82 189.949 1416.55 187.588 1422.93 185.994C1429.36 184.338 1436.02 183.143 1442.88 182.407C1451.16 181.549 1457.88 180.782 1463.03 180.108C1468.18 179.372 1471.92 178.268 1474.25 176.797C1476.64 175.264 1477.83 172.903 1477.83 169.714V169.163C1477.83 162.234 1475.78 156.869 1471.67 153.067C1467.56 149.266 1461.65 147.365 1453.92 147.365C1445.77 147.365 1439.3 149.143 1434.51 152.699C1429.79 156.256 1426.6 160.456 1424.95 165.3L1393.86 160.885C1396.31 152.301 1400.36 145.127 1406 139.363C1411.64 133.538 1418.54 129.184 1426.7 126.303C1434.85 123.359 1443.86 121.888 1453.74 121.888C1460.54 121.888 1467.32 122.685 1474.06 124.279C1480.81 125.873 1486.97 128.51 1492.55 132.189C1498.13 135.807 1502.61 140.743 1505.98 146.997C1509.41 153.251 1511.13 161.069 1511.13 170.45V265H1479.12V245.593H1478.02C1475.99 249.518 1473.14 253.197 1469.46 256.63C1465.85 260.003 1461.28 262.731 1455.76 264.816C1450.3 266.839 1443.9 267.851 1436.54 267.851ZM1445.18 243.386C1451.87 243.386 1457.66 242.068 1462.57 239.431C1467.47 236.733 1471.24 233.177 1473.88 228.762C1476.58 224.347 1477.93 219.534 1477.93 214.322V197.675C1476.88 198.533 1475.11 199.33 1472.59 200.066C1470.14 200.802 1467.38 201.446 1464.31 201.998C1461.25 202.549 1458.21 203.04 1455.21 203.469C1452.2 203.898 1449.6 204.266 1447.39 204.573C1442.42 205.247 1437.98 206.351 1434.05 207.884C1430.13 209.417 1427.03 211.563 1424.76 214.322C1422.5 217.02 1421.36 220.515 1421.36 224.807C1421.36 230.939 1423.6 235.568 1428.08 238.695C1432.55 241.822 1438.25 243.386 1445.18 243.386ZM1577.9 182.223V265H1544.61V123.727H1576.43V147.733H1578.09C1581.34 139.823 1586.52 133.538 1593.63 128.878C1600.8 124.218 1609.66 121.888 1620.21 121.888C1629.96 121.888 1638.45 123.973 1645.69 128.142C1652.98 132.312 1658.62 138.351 1662.61 146.261C1666.66 154.171 1668.65 163.767 1668.59 175.049V265H1635.29V180.2C1635.29 170.757 1632.84 163.368 1627.94 158.034C1623.09 152.699 1616.38 150.032 1607.79 150.032C1601.97 150.032 1596.79 151.32 1592.25 153.895C1587.77 156.409 1584.25 160.057 1581.67 164.84C1579.16 169.623 1577.9 175.417 1577.9 182.223ZM1763.87 320.92C1751.92 320.92 1741.65 319.296 1733.06 316.046C1724.48 312.857 1717.58 308.565 1712.37 303.169C1707.16 297.774 1703.54 291.795 1701.52 285.234L1731.5 277.968C1732.85 280.728 1734.81 283.456 1737.39 286.154C1739.96 288.913 1743.43 291.182 1747.78 292.96C1752.19 294.8 1757.74 295.719 1764.43 295.719C1773.87 295.719 1781.69 293.42 1787.88 288.821C1794.07 284.284 1797.17 276.803 1797.17 266.38V239.615H1795.51C1793.8 243.049 1791.28 246.574 1787.97 250.192C1784.72 253.81 1780.4 256.845 1775 259.298C1769.67 261.75 1762.95 262.977 1754.86 262.977C1744.01 262.977 1734.17 260.432 1725.34 255.343C1716.57 250.192 1709.58 242.528 1704.37 232.349C1699.22 222.109 1696.64 209.294 1696.64 193.904C1696.64 178.391 1699.22 165.3 1704.37 154.631C1709.58 143.9 1716.6 135.776 1725.43 130.257C1734.26 124.678 1744.1 121.888 1754.95 121.888C1763.23 121.888 1770.04 123.298 1775.37 126.119C1780.77 128.878 1785.06 132.22 1788.25 136.144C1791.44 140.007 1793.86 143.655 1795.51 147.089H1797.35V123.727H1830.19V267.299C1830.19 279.379 1827.31 289.373 1821.54 297.283C1815.78 305.193 1807.9 311.11 1797.9 315.034C1787.91 318.958 1776.57 320.92 1763.87 320.92ZM1764.15 236.856C1771.2 236.856 1777.21 235.139 1782.18 231.705C1787.14 228.272 1790.91 223.336 1793.49 216.897C1796.07 210.459 1797.35 202.733 1797.35 193.72C1797.35 184.829 1796.07 177.042 1793.49 170.358C1790.98 163.675 1787.24 158.494 1782.27 154.815C1777.36 151.074 1771.32 149.204 1764.15 149.204C1756.73 149.204 1750.54 151.136 1745.57 154.999C1740.6 158.862 1736.86 164.165 1734.35 170.91C1731.84 177.594 1730.58 185.197 1730.58 193.72C1730.58 202.365 1731.84 209.938 1734.35 216.438C1736.93 222.876 1740.7 227.904 1745.66 231.521C1750.69 235.078 1756.85 236.856 1764.15 236.856Z" fill="#171717"/>
</g>
<defs>
<linearGradient id="paint0_linear_1_39" x1="169.74" y1="293.161" x2="258.504" y2="58.7812" gradientUnits="userSpaceOnUse">
<stop stop-color="#EC9A00"/>
<stop offset="1" stop-color="#FFE81E"/>
</linearGradient>
<clipPath id="clip0_1_39">
<rect width="1889" height="342" fill="white"/>
</clipPath>
<clipPath id="clip1_1_39">
<rect width="342" height="342" fill="white"/>
</clipPath>
</defs>
</svg>
