<svg width="2510" height="400" viewBox="0 0 2510 400" fill="none" xmlns="http://www.w3.org/2000/svg">
<g clip-path="url(#clip0_1_2)">
<path d="M522.604 316V66.5454H616.15C635.314 66.5454 651.392 69.8748 664.384 76.5334C677.458 83.192 687.324 92.5303 693.983 104.548C700.722 116.485 704.092 130.411 704.092 146.327C704.092 162.324 700.682 176.21 693.861 187.984C687.121 199.677 677.174 208.731 664.019 215.146C650.864 221.48 634.705 224.647 615.541 224.647H548.914V187.131H609.451C620.657 187.131 629.833 185.589 636.978 182.503C644.124 179.336 649.402 174.748 652.813 168.739C656.305 162.649 658.05 155.178 658.05 146.327C658.05 137.476 656.305 129.924 652.813 123.672C649.321 117.338 644.002 112.547 636.857 109.299C629.711 105.969 620.494 104.305 609.207 104.305H567.794V316H522.604ZM651.473 202.966L713.228 316H662.801L602.142 202.966H651.473ZM822.669 319.654C804.398 319.654 788.563 315.635 775.165 307.596C761.767 299.556 751.373 288.31 743.983 273.856C736.675 259.402 733.021 242.512 733.021 223.185C733.021 203.859 736.675 186.928 743.983 172.393C751.373 157.858 761.767 146.571 775.165 138.532C788.563 130.493 804.398 126.473 822.669 126.473C840.939 126.473 856.774 130.493 870.172 138.532C883.57 146.571 893.924 157.858 901.232 172.393C908.622 186.928 912.316 203.859 912.316 223.185C912.316 242.512 908.622 259.402 901.232 273.856C893.924 288.31 883.57 299.556 870.172 307.596C856.774 315.635 840.939 319.654 822.669 319.654ZM822.912 284.331C832.819 284.331 841.102 281.611 847.76 276.17C854.419 270.648 859.372 263.259 862.62 254.002C865.95 244.745 867.614 234.432 867.614 223.064C867.614 211.614 865.95 201.261 862.62 192.004C859.372 182.665 854.419 175.235 847.76 169.713C841.102 164.192 832.819 161.431 822.912 161.431C812.762 161.431 804.317 164.192 797.577 169.713C790.918 175.235 785.924 182.665 782.595 192.004C779.347 201.261 777.723 211.614 777.723 223.064C777.723 234.432 779.347 244.745 782.595 254.002C785.924 263.259 790.918 270.648 797.577 276.17C804.317 281.611 812.762 284.331 822.912 284.331ZM1031.35 319.654C1012.67 319.654 996.635 315.553 983.237 307.352C969.919 299.15 959.647 287.823 952.42 273.369C945.274 258.833 941.701 242.106 941.701 223.185C941.701 204.184 945.356 187.416 952.664 172.88C959.972 158.264 970.285 146.895 983.602 138.775C997 130.574 1012.83 126.473 1031.11 126.473C1046.29 126.473 1059.73 129.275 1071.42 134.877C1083.2 140.399 1092.58 148.235 1099.56 158.386C1106.54 168.455 1110.52 180.229 1111.5 193.709H1069.35C1067.65 184.695 1063.59 177.184 1057.17 171.175C1050.84 165.085 1042.35 162.04 1031.71 162.04C1022.7 162.04 1014.78 164.476 1007.96 169.348C1001.14 174.139 995.823 181.041 992.006 190.055C988.271 199.068 986.403 209.868 986.403 222.455C986.403 235.203 988.271 246.166 992.006 255.342C995.742 264.436 1000.98 271.46 1007.72 276.414C1014.54 281.286 1022.54 283.722 1031.71 283.722C1038.21 283.722 1044.02 282.504 1049.13 280.068C1054.33 277.551 1058.67 273.937 1062.17 269.227C1065.66 264.518 1068.05 258.793 1069.35 252.053H1111.5C1110.44 265.289 1106.54 277.023 1099.8 287.254C1093.06 297.405 1083.89 305.362 1072.28 311.128C1060.66 316.812 1047.02 319.654 1031.35 319.654ZM1187.9 257.29L1187.78 204.062H1194.84L1262.08 128.909H1313.6L1230.89 220.993H1221.76L1187.9 257.29ZM1147.7 316V66.5454H1191.8V316H1147.7ZM1265.12 316L1204.22 230.859L1233.94 199.799L1317.86 316H1265.12ZM1418.11 319.654C1399.35 319.654 1383.15 315.756 1369.51 307.961C1355.95 300.084 1345.51 288.96 1338.2 274.587C1330.9 260.133 1327.24 243.121 1327.24 223.551C1327.24 204.306 1330.9 187.416 1338.2 172.88C1345.59 158.264 1355.91 146.895 1369.14 138.775C1382.38 130.574 1397.93 126.473 1415.79 126.473C1427.32 126.473 1438.2 128.341 1448.44 132.076C1458.75 135.73 1467.84 141.414 1475.72 149.129C1483.68 156.843 1489.93 166.668 1494.48 178.605C1499.03 190.461 1501.3 204.59 1501.3 220.993V234.513H1347.95V204.793H1459.03C1458.95 196.348 1457.13 188.837 1453.55 182.259C1449.98 175.601 1444.99 170.363 1438.57 166.547C1432.24 162.73 1424.85 160.822 1416.4 160.822C1407.39 160.822 1399.47 163.014 1392.65 167.399C1385.83 171.703 1380.51 177.387 1376.69 184.452C1372.96 191.435 1371.05 199.109 1370.97 207.473V233.417C1370.97 244.298 1372.96 253.636 1376.94 261.432C1380.92 269.146 1386.48 275.074 1393.62 279.215C1400.77 283.275 1409.13 285.305 1418.72 285.305C1425.13 285.305 1430.94 284.412 1436.13 282.626C1441.33 280.758 1445.84 278.038 1449.65 274.465C1453.47 270.892 1456.35 266.466 1458.3 261.188L1499.47 265.817C1496.87 276.698 1491.92 286.199 1484.61 294.319C1477.39 302.358 1468.13 308.611 1456.84 313.077C1445.55 317.462 1432.64 319.654 1418.11 319.654ZM1632.03 128.909V163.014H1524.47V128.909H1632.03ZM1551.03 84.0852H1595.12V259.727C1595.12 265.654 1596.01 270.202 1597.8 273.369C1599.67 276.454 1602.1 278.566 1605.11 279.702C1608.11 280.839 1611.44 281.408 1615.09 281.408C1617.86 281.408 1620.37 281.205 1622.65 280.799C1625 280.393 1626.79 280.027 1628.01 279.702L1635.44 314.173C1633.08 314.985 1629.71 315.878 1625.33 316.853C1621.02 317.827 1615.74 318.395 1609.49 318.558C1598.45 318.883 1588.5 317.218 1579.65 313.564C1570.8 309.829 1563.77 304.063 1558.58 296.268C1553.46 288.472 1550.94 278.728 1551.03 267.035V84.0852Z" fill="#171717"/>
<path d="M1659.89 104.426V66.5454H1858.92V104.426H1781.81V316H1736.99V104.426H1659.89ZM1923.72 319.776C1911.86 319.776 1901.18 317.665 1891.68 313.442C1882.26 309.138 1874.79 302.805 1869.27 294.441C1863.83 286.077 1861.11 275.764 1861.11 263.502C1861.11 252.946 1863.06 244.217 1866.95 237.315C1870.85 230.412 1876.17 224.891 1882.91 220.749C1889.65 216.608 1897.24 213.482 1905.69 211.37C1914.21 209.178 1923.03 207.594 1932.12 206.62C1943.08 205.483 1951.97 204.468 1958.8 203.575C1965.62 202.6 1970.57 201.139 1973.66 199.19C1976.82 197.16 1978.41 194.034 1978.41 189.811V189.08C1978.41 179.904 1975.69 172.799 1970.24 167.765C1964.8 162.73 1956.97 160.213 1946.74 160.213C1935.94 160.213 1927.37 162.568 1921.04 167.277C1914.78 171.987 1910.56 177.549 1908.37 183.964L1867.2 178.118C1870.45 166.75 1875.81 157.249 1883.28 149.616C1890.75 141.902 1899.88 136.136 1910.68 132.32C1921.48 128.422 1933.42 126.473 1946.49 126.473C1955.51 126.473 1964.48 127.529 1973.41 129.64C1982.34 131.751 1990.5 135.243 1997.89 140.115C2005.28 144.906 2011.21 151.443 2015.68 159.725C2020.22 168.008 2022.5 178.361 2022.5 190.786V316H1980.11V290.299H1978.65C1975.97 295.496 1972.19 300.368 1967.32 304.916C1962.53 309.382 1956.48 312.996 1949.17 315.756C1941.95 318.436 1933.46 319.776 1923.72 319.776ZM1935.17 287.376C1944.02 287.376 1951.69 285.63 1958.19 282.138C1964.68 278.566 1969.68 273.856 1973.17 268.009C1976.74 262.163 1978.53 255.788 1978.53 248.886V226.839C1977.15 227.976 1974.79 229.032 1971.46 230.006C1968.21 230.981 1964.56 231.833 1960.5 232.564C1956.44 233.295 1952.42 233.945 1948.44 234.513C1944.46 235.082 1941.01 235.569 1938.09 235.975C1931.51 236.868 1925.62 238.33 1920.43 240.36C1915.23 242.39 1911.13 245.232 1908.12 248.886C1905.12 252.459 1903.62 257.087 1903.62 262.772C1903.62 270.892 1906.58 277.023 1912.51 281.164C1918.44 285.305 1925.99 287.376 1935.17 287.376ZM2110.93 66.5454V316H2066.84V66.5454H2110.93ZM2196.47 257.29L2196.34 204.062H2203.41L2270.64 128.909H2322.17L2239.46 220.993H2230.33L2196.47 257.29ZM2156.27 316V66.5454H2200.36V316H2156.27ZM2273.69 316L2212.79 230.859L2242.51 199.799L2326.43 316H2273.69Z" fill="#EC9A00"/>
<path d="M65.7322 285.507C65.7322 285.507 24.38 281.806 7.90657 313.075C7.90657 313.075 23.3715 318.451 31.1042 316.771C31.1042 316.771 -0.498687 354.424 3.87194 383C3.87194 383 46.2331 380.312 63.0426 358.126C63.0426 358.126 64.7236 368.547 61.3615 377.96C61.3615 377.96 97.3345 364.174 101.705 321.481L65.7322 285.507Z" fill="#EC7100"/>
<path d="M214.707 296.427C243.262 281.796 269.118 262.848 291.473 240.499C332.832 199.134 362.211 146.115 374.591 87.1572C378.47 68.7192 380.681 49.7037 381.069 30.284L381.678 0.175247L351.564 0.778976C332.144 1.1675 313.129 3.3777 294.691 7.25746C203.882 26.3202 127.148 85.7607 85.4374 167.151C85.438 167.151 85.4385 167.146 85.439 167.146C65.6607 166.117 23.7358 172.89 0 242.116L59.6584 237.795C57.9369 245.271 56.4769 252.852 55.3045 260.538L121.316 326.552C129.004 325.381 136.585 323.916 144.058 322.194L139.735 381.855C208.943 358.125 215.731 316.215 214.707 296.427Z" fill="url(#paint0_linear_1_2)"/>
<path d="M194.594 106.462C216.907 84.1491 253.079 84.1491 275.392 106.462C297.704 128.774 297.704 164.947 275.392 187.259C253.079 209.572 216.907 209.572 194.594 187.259C172.283 164.947 172.283 128.774 194.594 106.462Z" fill="white"/>
</g>
<defs>
<linearGradient id="paint0_linear_1_2" x1="190.839" y1="381.855" x2="327.1" y2="22.0625" gradientUnits="userSpaceOnUse">
<stop stop-color="#EC9A00"/>
<stop offset="1" stop-color="#FFE81E"/>
</linearGradient>
<clipPath id="clip0_1_2">
<rect width="2510" height="400" fill="white"/>
</clipPath>
</defs>
</svg>
