<svg width="525" height="525" viewBox="0 0 525 525" fill="none" xmlns="http://www.w3.org/2000/svg">
<rect width="525" height="525" rx="76" fill="white"/>
<path d="M137.732 356.332C137.732 356.332 96.38 352.631 79.9066 383.9C79.9066 383.9 95.3715 389.276 103.104 387.596C103.104 387.596 71.5013 425.249 75.8719 453.825C75.8719 453.825 118.233 451.137 135.043 428.95C135.043 428.95 136.724 439.371 133.362 448.785C133.362 448.785 169.335 434.998 173.705 392.305L137.732 356.332Z" fill="#EC7100"/>
<path d="M286.707 367.252C315.262 352.62 341.118 333.673 363.473 311.324C404.832 269.959 434.211 216.939 446.591 157.982C450.47 139.544 452.681 120.528 453.069 101.109L453.678 71L423.564 71.6037C404.144 71.9922 385.129 74.2024 366.691 78.0822C275.882 97.1449 199.148 156.585 157.437 237.976C157.438 237.976 157.439 237.971 157.439 237.971C137.661 236.942 95.7358 243.714 72 312.941L131.658 308.62C129.937 316.096 128.477 323.677 127.305 331.363L193.316 397.377C201.004 396.206 208.585 394.741 216.058 393.019L211.735 452.68C280.943 428.95 287.731 387.039 286.707 367.252Z" fill="url(#paint0_linear_12_12)"/>
<path d="M266.594 177.286C288.907 154.974 325.079 154.974 347.392 177.286C369.704 199.599 369.704 235.771 347.392 258.084C325.079 280.396 288.907 280.396 266.594 258.084C244.283 235.771 244.283 199.599 266.594 177.286Z" fill="white"/>
<defs>
<linearGradient id="paint0_linear_12_12" x1="262.839" y1="452.68" x2="399.1" y2="92.8872" gradientUnits="userSpaceOnUse">
<stop stop-color="#EC9A00"/>
<stop offset="1" stop-color="#FFE81E"/>
</linearGradient>
</defs>
</svg>
