<svg width="4343" height="2178" viewBox="0 0 4343 2178" fill="none" xmlns="http://www.w3.org/2000/svg">
<g clip-path="url(#clip0_5_81)">
<rect width="4343" height="2178" fill="white"/>
<path d="M1673.34 2181.13L1120 2181.62V2657H3225V2185.43H2605.93C2603.07 2111.27 2542.07 2052.02 2467.21 2052.02C2447.1 2052.02 2428.01 2056.33 2410.75 2064.02C2401.86 2028.28 2369.64 2001.77 2331.15 2001.77L2331.06 2001.77C2331.01 2000.29 2330.9 1998.82 2330.72 1997.37C2330.99 1995.31 2331.15 1993.22 2331.15 1991.09C2331.15 1963.72 2308.96 1941.53 2281.6 1941.53C2275.33 1941.53 2269.37 1942.74 2263.85 1944.86C2261.03 1925.94 2247.56 1910.49 2229.69 1904.91L2205.47 1841H2166.22L2142.44 1903.77C2139.37 1903.07 2136.2 1902.66 2132.92 1902.66C2109.43 1902.66 2090.38 1921.71 2090.38 1945.2C2090.38 1947.31 2090.59 1949.37 2090.9 1951.39C2090.83 1951.85 2090.74 1952.31 2090.69 1952.77C2083.84 1950.23 2076.46 1948.78 2068.72 1948.78C2033.79 1948.78 2005.46 1977.06 2005.38 2011.97C2003.19 2011.61 2000.97 2011.38 1998.68 2011.38C1982.32 2011.38 1968.25 2021.07 1961.81 2035C1939.91 2020.56 1913.69 2012.13 1885.49 2012.13C1808.8 2012.13 1746.63 2074.3 1746.63 2150.98C1746.63 2153.01 1746.7 2155.03 1746.8 2157.04C1746.77 2157.7 1746.77 2158.37 1746.74 2159.03C1739.5 2147.88 1726.97 2140.49 1712.68 2140.49C1690.23 2140.49 1670.04 2162.61 1670.04 2185.06" fill="url(#paint0_linear_5_81)" fill-opacity="0.46"/>
<path d="M2495.93 1984.67C2495.48 1977.04 2489.26 1971 2481.64 1971C2475.47 1971 2470.21 1974.96 2468.19 1980.52C2465.54 1977.56 2461.72 1975.7 2457.47 1975.7C2449.48 1975.7 2443 1982.28 2443 1990.41C2443 1996 2446.07 2000.85 2450.59 2003.34C2448.39 2005.9 2447.06 2009.24 2447.06 2012.9C2447.06 2020.94 2453.47 2027.45 2461.38 2027.45C2464.12 2027.45 2466.68 2026.68 2468.85 2025.32L2468.91 2025.36C2468.77 2026.03 2468.7 2026.74 2468.7 2027.45C2468.7 2033.28 2473.35 2038 2479.08 2038C2484.81 2038 2489.46 2033.28 2489.46 2027.45C2489.46 2026.6 2489.35 2025.78 2489.16 2024.98C2490.93 2025.5 2492.81 2025.78 2494.75 2025.78C2505.93 2025.78 2515 2016.57 2515 2005.21C2515 1994.25 2506.57 1985.29 2495.93 1984.67Z" fill="#F0F0F0"/>
<path d="M1991.67 1893.67C1991.21 1886.04 1984.9 1880 1977.17 1880C1970.92 1880 1965.58 1883.96 1963.54 1889.52C1960.86 1886.56 1956.98 1884.7 1952.67 1884.7C1944.57 1884.7 1938 1891.28 1938 1899.41C1938 1904.99 1941.11 1909.85 1945.69 1912.34C1943.47 1914.9 1942.11 1918.24 1942.11 1921.9C1942.11 1929.94 1948.62 1936.45 1956.64 1936.45C1959.41 1936.45 1962.01 1935.67 1964.21 1934.32L1964.27 1934.36C1964.13 1935.03 1964.06 1935.73 1964.06 1936.45C1964.06 1942.28 1968.77 1947 1974.58 1947C1980.39 1947 1985.1 1942.28 1985.1 1936.45C1985.1 1935.6 1984.99 1934.78 1984.8 1933.98C1986.6 1934.5 1988.5 1934.78 1990.47 1934.78C2001.81 1934.78 2011 1925.57 2011 1914.21C2011 1903.25 2002.45 1894.29 1991.67 1893.67Z" fill="#F0F0F0"/>
<path d="M2562.53 2022.12C2562.33 2018.7 2559.56 2016 2556.17 2016C2553.43 2016 2551.09 2017.78 2550.2 2020.26C2549.02 2018.94 2547.32 2018.11 2545.43 2018.11C2541.88 2018.11 2539 2021.05 2539 2024.69C2539 2027.19 2540.36 2029.37 2542.37 2030.48C2541.4 2031.63 2540.8 2033.12 2540.8 2034.76C2540.8 2038.36 2543.66 2041.28 2547.17 2041.28C2548.39 2041.28 2549.52 2040.93 2550.49 2040.32L2550.52 2040.34C2550.45 2040.64 2550.43 2040.96 2550.43 2041.28C2550.43 2043.88 2552.49 2046 2555.04 2046C2557.58 2046 2559.65 2043.88 2559.65 2041.28C2559.65 2040.89 2559.6 2040.53 2559.52 2040.17C2560.3 2040.4 2561.14 2040.53 2562 2040.53C2566.97 2040.53 2571 2036.4 2571 2031.32C2571 2026.41 2567.25 2022.4 2562.53 2022.12Z" fill="#F0F0F0"/>
<path d="M2082.61 1857.16C2082.34 1852.61 2078.63 1849 2074.08 1849C2070.39 1849 2067.25 1851.37 2066.04 1854.69C2064.46 1852.92 2062.18 1851.81 2059.64 1851.81C2054.87 1851.81 2051 1855.74 2051 1860.59C2051 1863.92 2052.83 1866.83 2055.53 1868.31C2054.22 1869.84 2053.42 1871.83 2053.42 1874.02C2053.42 1878.82 2057.25 1882.71 2061.98 1882.71C2063.61 1882.71 2065.14 1882.24 2066.44 1881.43L2066.47 1881.45C2066.39 1881.86 2066.35 1882.28 2066.35 1882.71C2066.35 1886.18 2069.12 1889 2072.55 1889C2075.97 1889 2078.74 1886.18 2078.74 1882.71C2078.74 1882.2 2078.68 1881.71 2078.57 1881.23C2079.63 1881.54 2080.74 1881.71 2081.91 1881.71C2088.59 1881.71 2094 1876.21 2094 1869.42C2094 1862.88 2088.96 1857.53 2082.61 1857.16Z" fill="#F0F0F0"/>
<path d="M1929.53 1961.92C1929.33 1958.62 1926.56 1956 1923.17 1956C1920.43 1956 1918.09 1957.72 1917.19 1960.12C1916.02 1958.84 1914.32 1958.04 1912.43 1958.04C1908.88 1958.04 1906 1960.88 1906 1964.4C1906 1966.82 1907.36 1968.92 1909.37 1970C1908.4 1971.1 1907.8 1972.55 1907.8 1974.14C1907.8 1977.62 1910.66 1980.44 1914.17 1980.44C1915.39 1980.44 1916.52 1980.1 1917.49 1979.51L1917.51 1979.53C1917.45 1979.82 1917.42 1980.13 1917.42 1980.44C1917.42 1982.96 1919.49 1985 1922.04 1985C1924.58 1985 1926.65 1982.96 1926.65 1980.44C1926.65 1980.07 1926.6 1979.71 1926.52 1979.37C1927.3 1979.59 1928.14 1979.71 1929 1979.71C1933.97 1979.71 1938 1975.73 1938 1970.81C1938 1966.06 1934.25 1962.19 1929.53 1961.92Z" fill="#F0F0F0"/>
<path d="M1518.43 831.254C1499.45 831.254 1481.69 836.464 1466.49 845.509C1462.86 792.596 1418.82 750.795 1364.98 750.795C1351.86 750.795 1339.33 753.307 1327.81 757.829C1313.15 708.769 1267.7 673 1213.87 673C1148.18 673 1094.93 726.248 1094.93 791.933C1094.93 793.616 1094.99 795.281 1095.06 796.942L1094.93 796.939C1029.25 796.939 976 850.186 976 915.872C976 981.558 1029.25 1034.81 1094.93 1034.81C1099.04 1034.81 1103.09 1034.6 1107.08 1034.19H1507.33C1510.98 1034.59 1514.68 1034.81 1518.43 1034.81C1574.64 1034.81 1620.2 989.24 1620.2 933.03C1620.2 876.819 1574.64 831.254 1518.43 831.254Z" fill="#F0F0F0"/>
<path d="M3323.39 1492C3339.2 1492 3353.98 1496.33 3366.64 1503.87C3369.66 1459.81 3406.34 1425 3451.16 1425C3462.09 1425 3472.52 1427.1 3482.11 1430.86C3494.32 1390.01 3532.17 1360.23 3576.99 1360.23C3631.68 1360.23 3676.01 1404.56 3676.01 1459.26C3676.01 1460.65 3675.96 1462.04 3675.91 1463.43L3676.01 1463.42C3730.7 1463.42 3775.04 1507.76 3775.04 1562.45C3775.04 1617.14 3730.7 1661.48 3676.01 1661.48C3672.6 1661.48 3669.22 1661.31 3665.9 1660.97H3332.63C3329.59 1661.3 3326.52 1661.48 3323.39 1661.48C3276.59 1661.48 3238.65 1623.54 3238.65 1576.74C3238.65 1529.94 3276.59 1492 3323.39 1492Z" fill="#F0F0F0"/>
<path d="M811.844 1539.06C820.495 1539.06 828.59 1541.44 835.525 1545.56C837.179 1521.44 857.259 1502.38 881.802 1502.38C887.785 1502.38 893.496 1503.52 898.747 1505.59C905.433 1483.22 926.157 1466.91 950.698 1466.91C980.643 1466.91 1004.92 1491.19 1004.92 1521.14C1004.92 1521.9 1004.89 1522.66 1004.86 1523.42H1004.92C1034.87 1523.42 1059.14 1547.69 1059.14 1577.64C1059.14 1607.59 1034.87 1631.86 1004.92 1631.86C1003.05 1631.86 1001.2 1631.77 999.383 1631.59H816.903C815.241 1631.77 813.554 1631.86 811.844 1631.86C786.216 1631.86 765.442 1611.09 765.442 1585.46C765.442 1559.84 786.216 1539.06 811.844 1539.06Z" fill="#F0F0F0"/>
<path d="M3049.77 820.236C3038.88 820.236 3028.68 823.228 3019.95 828.417C3017.87 798.045 2992.59 774.051 2961.69 774.051C2955.01 774.051 2948.62 775.24 2942.65 777.307C2934.03 749.468 2908.09 729.241 2877.43 729.241C2875.12 729.241 2872.85 729.393 2870.61 729.615C2841.96 731.421 2818.1 750.819 2809.82 777.183C2803.81 775.098 2797.4 773.899 2790.68 773.899C2759.78 773.899 2734.51 797.893 2732.42 828.265C2723.69 823.072 2713.5 820.081 2702.61 820.081C2670.34 820.081 2644.18 846.238 2644.18 878.5C2644.18 910.766 2670.34 936.922 2702.61 936.922C2704.76 936.922 2706.88 936.795 2708.97 936.57H2798.7C2801.32 936.877 2803.98 937.074 2806.68 937.074C2809.03 937.074 2811.36 936.954 2813.65 936.725H2941.76C2943.07 936.799 2944.37 936.922 2945.69 936.922C2947.02 936.922 2948.31 936.799 2949.62 936.725H3043.4C3045.49 936.951 3047.62 937.074 3049.77 937.074C3082.03 937.074 3108.19 910.921 3108.19 878.655C3108.19 846.389 3082.03 820.236 3049.77 820.236Z" fill="#F0F0F0"/>
<mask id="mask0_5_81" style="mask-type:luminance" maskUnits="userSpaceOnUse" x="2105" y="1728" width="152" height="168">
<path d="M2228.95 1728.01H2132.94C2132.94 1728.01 2101.46 1761 2105.79 1809.54C2105.79 1809.54 2114.69 1799.47 2121.76 1794.24C2123.05 1793.29 2124.82 1794.38 2124.58 1795.96C2122.88 1806.93 2124.34 1839.82 2180.95 1895.7C2237.56 1839.82 2239.01 1806.93 2237.31 1795.96C2237.07 1794.38 2238.84 1793.29 2240.13 1794.24C2247.2 1799.47 2256.1 1809.54 2256.1 1809.54C2260.43 1761 2228.95 1728.01 2228.95 1728.01Z" fill="white"/>
</mask>
<g mask="url(#mask0_5_81)">
<path d="M2228.95 1728.01H2132.94C2132.94 1728.01 2101.46 1761 2105.79 1809.54C2105.79 1809.54 2114.69 1799.47 2121.76 1794.24C2123.05 1793.29 2124.82 1794.38 2124.58 1795.96C2122.88 1806.93 2124.34 1839.82 2180.95 1895.7C2237.56 1839.82 2239.01 1806.93 2237.31 1795.96C2237.07 1794.38 2238.84 1793.29 2240.13 1794.24C2247.2 1799.47 2256.1 1809.54 2256.1 1809.54C2260.43 1761 2228.95 1728.01 2228.95 1728.01Z" fill="url(#paint1_linear_5_81)"/>
</g>
<path d="M2181 1691V1691.03C2181 1691.03 2120.25 1739.87 2181 1824V1823.97C2241.75 1739.84 2181 1691 2181 1691Z" fill="#FBE680"/>
<path d="M2181 1722V1722.02C2181 1722.02 2145 1751.03 2181 1801V1800.98C2217 1751.01 2181 1722 2181 1722Z" fill="white"/>
<path d="M2111 1706L2118.02 1719C2121 1724.53 2126.95 1728 2133.45 1728H2179.96H2180.03H2226.55C2233.05 1728 2239 1724.53 2241.98 1719L2249 1706H2111Z" fill="#909190"/>
<path d="M2112.31 1706.52L2109.98 1707.68L2116.97 1720.65C2120.39 1727.01 2127.21 1731 2134.65 1731H2180.96H2181.04H2227.35C2234.79 1731 2241.61 1727.01 2245.04 1720.65L2254 1704H2108L2109.98 1707.68L2112.31 1706.52V1709.04H2245.39L2240.38 1718.33C2237.86 1723.02 2232.83 1725.96 2227.35 1725.96H2181.04H2180.96H2134.65C2129.17 1725.96 2124.14 1723.02 2121.62 1718.33L2114.63 1705.36L2112.31 1706.52Z" fill="#3C3C3D"/>
<path d="M2092 1681L2100.95 1698.13C2104.76 1705.42 2112.35 1710 2120.63 1710H2179.95H2180.05H2239.37C2247.65 1710 2255.24 1705.42 2259.05 1698.13L2268 1681H2092Z" fill="#464648"/>
<path d="M2092.29 1680.65L2089.98 1681.86L2098.94 1699.41C2103.21 1707.76 2111.71 1713 2120.99 1713H2180.45H2180.55H2240.01C2249.28 1713 2257.79 1707.76 2262.05 1699.41L2273 1678H2088L2089.98 1681.86L2092.29 1680.65V1683.29H2264.41L2257.42 1696.97C2254.05 1703.57 2247.34 1707.71 2240.01 1707.71H2180.55H2180.45H2120.99C2113.66 1707.71 2106.95 1703.57 2103.58 1696.97L2094.61 1679.43L2092.29 1680.65Z" fill="#3C3C3D"/>
<path d="M2265.72 1548C2265.72 1548 2416.13 1599.45 2406.56 1750C2406.56 1750 2279.93 1621.51 2211 1649L2265.72 1548Z" fill="#E12125"/>
<path d="M2096.28 1548C2096.28 1548 1945.87 1599.45 1955.44 1750C1955.44 1750 2082.07 1621.51 2151 1649L2096.28 1548Z" fill="#E12125"/>
<path d="M2254 1258C2236.56 1214.48 2212.79 1172 2180.75 1133L2180.72 1133.17L2180.7 1133C2148.99 1171.59 2125.39 1213.6 2108 1256.65C2141.91 1248.6 2193.09 1243.16 2254 1258Z" fill="#E12125"/>
<path d="M2251.14 1265.29L2250.07 1262.51L2250 1262.33C2211.39 1252.72 2176.48 1252.44 2151.08 1254.61C2138.14 1255.71 2127.69 1257.45 2120.49 1258.91C2116.89 1259.63 2114.11 1260.29 2112.24 1260.76C2112 1260.82 2111.77 1260.88 2111.56 1260.94L2110.47 1263.71L2109.86 1265.29C2044.06 1436.18 2073.88 1621.96 2084.5 1674.52C2085.79 1680.92 2091.41 1685.5 2097.92 1685.5H2109.24H2252.95H2263.08C2269.59 1685.5 2275.21 1680.92 2276.5 1674.52C2287.12 1621.96 2316.94 1436.17 2251.14 1265.29Z" fill="url(#paint2_linear_5_81)" stroke="#3C3C3D" stroke-width="9"/>
<path d="M2239 1397.5C2239 1431.46 2211.24 1459 2177 1459C2142.76 1459 2115 1431.46 2115 1397.5C2115 1363.54 2142.76 1336 2177 1336C2211.24 1336 2239 1363.54 2239 1397.5Z" fill="#162E42"/>
<path d="M2239.38 1398H2236.75C2236.75 1414.24 2230.13 1428.92 2219.4 1439.57C2208.67 1450.22 2193.87 1456.79 2177.5 1456.79C2161.13 1456.79 2146.33 1450.22 2135.6 1439.57C2124.88 1428.92 2118.25 1414.24 2118.25 1398C2118.25 1381.76 2124.88 1367.07 2135.6 1356.43C2146.33 1345.78 2161.13 1339.21 2177.5 1339.21C2193.87 1339.21 2208.67 1345.78 2219.4 1356.43C2230.12 1367.07 2236.75 1381.76 2236.75 1398H2239.38H2242C2242 1362.65 2213.12 1334 2177.5 1334C2141.88 1334 2113 1362.65 2113 1398C2113 1433.35 2141.88 1462 2177.5 1462C2213.12 1462 2242 1433.35 2242 1398H2239.38Z" fill="#3C3C3D"/>
<path d="M2227 1400.5C2227 1426.73 2205.96 1448 2180 1448C2154.04 1448 2133 1426.73 2133 1400.5C2133 1374.26 2154.04 1353 2180 1353C2205.96 1353 2227 1374.26 2227 1400.5Z" fill="#D6F6FF"/>
<path d="M2227.4 1400H2224.8C2224.8 1412.37 2219.85 1423.54 2211.83 1431.64C2203.8 1439.74 2192.74 1444.75 2180.5 1444.75C2168.26 1444.75 2157.2 1439.74 2149.17 1431.64C2141.15 1423.54 2136.2 1412.37 2136.2 1400C2136.2 1387.63 2141.15 1376.46 2149.17 1368.36C2157.2 1360.25 2168.26 1355.25 2180.5 1355.25C2192.74 1355.25 2203.8 1360.25 2211.83 1368.36C2219.85 1376.46 2224.8 1387.63 2224.8 1400H2227.4H2230C2230 1372.38 2207.84 1350 2180.5 1350C2153.16 1350 2131 1372.38 2131 1400C2131 1427.62 2153.16 1450 2180.5 1450C2207.84 1450 2230 1427.62 2230 1400H2227.4Z" fill="#3C3C3D"/>
<path d="M2134 1387C2135.9 1379.14 2140.02 1372.11 2145.67 1366.58C2153.62 1358.8 2164.58 1354 2176.71 1354C2176.75 1354 2176.8 1354 2176.85 1354C2176.85 1354 2176.85 1354 2176.86 1354C2176.9 1354 2176.95 1354 2176.99 1354H2176.99C2177.89 1354.01 2178.77 1354.04 2179.65 1354.1C2179.68 1354.1 2179.7 1354.1 2179.72 1354.1C2179.74 1354.1 2179.76 1354.1 2179.77 1354.1C2179.8 1354.1 2179.83 1354.11 2179.86 1354.11C2179.87 1354.11 2179.88 1354.11 2179.89 1354.11C2188.09 1354.68 2195.67 1357.47 2202 1361.87C2195.31 1358.5 2187.72 1356.61 2179.68 1356.61C2158.93 1356.61 2141.19 1369.2 2134 1387Z" fill="#565D63"/>
<path d="M2224.38 1397.5H2221.76C2221.76 1409.73 2216.81 1420.78 2208.79 1428.8C2200.78 1436.81 2189.73 1441.76 2177.5 1441.76C2165.27 1441.76 2154.22 1436.81 2146.2 1428.8C2138.19 1420.78 2133.24 1409.73 2133.24 1397.5C2133.24 1385.27 2138.19 1374.22 2146.2 1366.21C2154.22 1358.19 2165.27 1353.25 2177.5 1353.24C2189.73 1353.25 2200.78 1358.19 2208.79 1366.21C2216.81 1374.22 2221.76 1385.27 2221.76 1397.5H2224.38H2227C2227 1370.16 2204.84 1348 2177.5 1348C2150.16 1348 2128 1370.16 2128 1397.5C2128 1424.84 2150.16 1447 2177.5 1447C2204.84 1447 2227 1424.84 2227 1397.5H2224.38Z" fill="#3C3C3D"/>
<path d="M2132.98 1419C2129.92 1412.7 2128.12 1405.65 2128.01 1398.19C2128.01 1398.19 2128.01 1398.19 2128.01 1398.19C2128.01 1398.15 2128.01 1398.1 2128 1398.07C2128 1398.03 2128 1398 2128 1397.97C2128 1397.96 2128 1397.94 2128 1397.93C2128 1397.89 2128 1397.84 2128 1397.79C2128 1397.78 2128 1397.78 2128 1397.78C2128 1397.73 2128 1397.68 2128 1397.63C2128 1397.57 2128 1397.52 2128 1397.47C2128 1370.15 2150.12 1348 2177.41 1348C2177.46 1348 2177.5 1348 2177.55 1348C2177.58 1348 2177.62 1348 2177.66 1348C2177.67 1348 2177.67 1348 2177.68 1348C2200.29 1348.13 2219.26 1363.46 2225 1384.3L2220.13 1386.14C2218.1 1378.48 2214.08 1371.64 2208.65 1366.19C2201.35 1358.89 2191.54 1354.14 2180.61 1353.36C2180.6 1353.35 2180.59 1353.35 2180.58 1353.35C2180.56 1353.35 2180.52 1353.35 2180.5 1353.35C2180.48 1353.35 2180.46 1353.35 2180.44 1353.34C2180.42 1353.34 2180.4 1353.34 2180.37 1353.34C2179.49 1353.28 2178.6 1353.25 2177.7 1353.24H2177.69C2177.65 1353.24 2177.61 1353.24 2177.56 1353.24C2177.56 1353.24 2177.55 1353.24 2177.55 1353.24C2177.5 1353.24 2177.46 1353.24 2177.41 1353.24C2165.2 1353.24 2154.18 1358.19 2146.17 1366.19C2138.18 1374.2 2133.23 1385.25 2133.23 1397.47C2133.23 1404.55 2134.89 1411.23 2137.85 1417.16L2132.98 1419Z" fill="#565D63"/>
<path d="M2180.5 1567C2129.88 1681.78 2180.5 1781 2180.5 1781C2180.5 1781 2231.12 1681.78 2180.5 1567Z" fill="#E12125"/>
</g>
<defs>
<linearGradient id="paint0_linear_5_81" x1="2172.26" y1="1841.3" x2="2407.65" y2="2201.85" gradientUnits="userSpaceOnUse">
<stop stop-color="#EC9A00"/>
<stop offset="1" stop-color="#FFE81E"/>
</linearGradient>
<linearGradient id="paint1_linear_5_81" x1="2180.95" y1="1728.01" x2="2180.95" y2="1895.7" gradientUnits="userSpaceOnUse">
<stop stop-color="#F5B655"/>
<stop offset="0.00558659" stop-color="#F5B655"/>
<stop offset="1" stop-color="#EE502D"/>
</linearGradient>
<linearGradient id="paint2_linear_5_81" x1="2180.5" y1="1690" x2="2405.58" y2="1376" gradientUnits="userSpaceOnUse">
<stop stop-color="#EC9A00"/>
<stop offset="1" stop-color="#FFE81E"/>
</linearGradient>
<clipPath id="clip0_5_81">
<rect width="4343" height="2178" fill="white"/>
</clipPath>
</defs>
</svg>
