<svg width="4343" height="2178" viewBox="0 0 4343 2178" fill="none" xmlns="http://www.w3.org/2000/svg">
<g clip-path="url(#clip0_7_136)">
<rect width="4343" height="2178" fill="white"/>
<path d="M1889.13 2178.41L1575 2178.69V2449H2770V2180.85H2418.55C2416.93 2138.68 2382.3 2104.99 2339.8 2104.99C2328.39 2104.99 2317.55 2107.44 2307.76 2111.82C2302.7 2091.5 2284.42 2076.42 2262.56 2076.42L2262.51 2076.42C2262.48 2075.58 2262.42 2074.74 2262.32 2073.92C2262.47 2072.75 2262.56 2071.56 2262.56 2070.34C2262.56 2054.78 2249.97 2042.17 2234.43 2042.17C2230.88 2042.17 2227.49 2042.85 2224.36 2044.06C2222.76 2033.3 2215.11 2024.51 2204.96 2021.34L2191.22 1985H2168.94L2155.43 2020.69C2153.69 2020.29 2151.89 2020.06 2150.03 2020.06C2136.69 2020.06 2125.88 2030.89 2125.88 2044.25C2125.88 2045.45 2126 2046.62 2126.17 2047.77C2126.13 2048.03 2126.09 2048.29 2126.05 2048.56C2122.17 2047.11 2117.98 2046.28 2113.59 2046.28C2093.75 2046.28 2077.67 2062.37 2077.62 2082.22C2076.39 2082.01 2075.12 2081.88 2073.82 2081.88C2064.54 2081.88 2056.55 2087.39 2052.89 2095.31C2040.46 2087.1 2025.57 2082.31 2009.57 2082.31C1966.03 2082.31 1930.74 2117.66 1930.74 2161.26C1930.74 2162.42 1930.78 2163.57 1930.83 2164.71C1930.81 2165.08 1930.81 2165.46 1930.8 2165.84C1926.69 2159.5 1919.57 2155.3 1911.46 2155.3C1898.72 2155.3 1887.26 2167.88 1887.26 2180.64" fill="url(#paint0_linear_7_136)" fill-opacity="0.46"/>
<path d="M2356.14 2066.75C2355.89 2062.43 2352.34 2059 2348 2059C2344.49 2059 2341.49 2061.25 2340.34 2064.4C2338.84 2062.72 2336.66 2061.67 2334.24 2061.67C2329.69 2061.67 2326 2065.4 2326 2070.01C2326 2073.18 2327.75 2075.93 2330.32 2077.34C2329.07 2078.8 2328.31 2080.69 2328.31 2082.76C2328.31 2087.32 2331.96 2091.02 2336.47 2091.02C2338.03 2091.02 2339.48 2090.58 2340.72 2089.81L2340.75 2089.83C2340.68 2090.21 2340.64 2090.61 2340.64 2091.02C2340.64 2094.32 2343.28 2097 2346.55 2097C2349.81 2097 2352.46 2094.32 2352.46 2091.02C2352.46 2090.54 2352.39 2090.07 2352.28 2089.62C2353.3 2089.91 2354.36 2090.07 2355.47 2090.07C2361.84 2090.07 2367 2084.85 2367 2078.4C2367 2072.19 2362.2 2067.11 2356.14 2066.75Z" fill="#F0F0F0"/>
<path d="M2069.88 2015.75C2069.61 2011.43 2065.98 2008 2061.54 2008C2057.94 2008 2054.87 2010.25 2053.69 2013.4C2052.15 2011.72 2049.92 2010.66 2047.44 2010.66C2042.78 2010.66 2039 2014.4 2039 2019.01C2039 2022.18 2040.79 2024.93 2043.42 2026.34C2042.14 2027.79 2041.37 2029.69 2041.37 2031.76C2041.37 2036.32 2045.11 2040.02 2049.72 2040.02C2051.32 2040.02 2052.81 2039.58 2054.08 2038.81L2054.11 2038.83C2054.03 2039.21 2053.99 2039.61 2053.99 2040.02C2053.99 2043.32 2056.7 2046 2060.05 2046C2063.39 2046 2066.1 2043.32 2066.1 2040.02C2066.1 2039.53 2066.04 2039.07 2065.93 2038.62C2066.96 2038.91 2068.05 2039.07 2069.19 2039.07C2075.71 2039.07 2081 2033.84 2081 2027.4C2081 2021.19 2076.08 2016.11 2069.88 2015.75Z" fill="#F0F0F0"/>
<path d="M2394.23 2088.47C2394.12 2086.53 2392.56 2085 2390.66 2085C2389.12 2085 2387.8 2086.01 2387.3 2087.42C2386.64 2086.66 2385.68 2086.19 2384.62 2086.19C2382.62 2086.19 2381 2087.86 2381 2089.92C2381 2091.34 2381.77 2092.57 2382.9 2093.21C2382.35 2093.86 2382.01 2094.7 2382.01 2095.63C2382.01 2097.67 2383.62 2099.32 2385.6 2099.32C2386.28 2099.32 2386.92 2099.13 2387.46 2098.78L2387.48 2098.79C2387.44 2098.96 2387.43 2099.14 2387.43 2099.32C2387.43 2100.8 2388.59 2102 2390.02 2102C2391.45 2102 2392.62 2100.8 2392.62 2099.32C2392.62 2099.11 2392.59 2098.9 2392.54 2098.7C2392.98 2098.83 2393.45 2098.9 2393.94 2098.9C2396.73 2098.9 2399 2096.56 2399 2093.68C2399 2090.9 2396.89 2088.63 2394.23 2088.47Z" fill="#F0F0F0"/>
<path d="M2121.38 1994.69C2121.22 1992.08 2119.06 1990 2116.42 1990C2114.27 1990 2112.45 1991.36 2111.75 1993.27C2110.83 1992.25 2109.5 1991.61 2108.03 1991.61C2105.25 1991.61 2103 1993.87 2103 1996.66C2103 1998.58 2104.06 2000.25 2105.63 2001.1C2104.87 2001.98 2104.41 2003.13 2104.41 2004.39C2104.41 2007.14 2106.63 2009.38 2109.38 2009.38C2110.33 2009.38 2111.22 2009.11 2111.98 2008.65L2111.99 2008.66C2111.95 2008.89 2111.92 2009.13 2111.92 2009.38C2111.92 2011.38 2113.54 2013 2115.53 2013C2117.52 2013 2119.13 2011.38 2119.13 2009.38C2119.13 2009.09 2119.09 2008.81 2119.03 2008.53C2119.64 2008.71 2120.29 2008.81 2120.97 2008.81C2124.85 2008.81 2128 2005.64 2128 2001.74C2128 1997.98 2125.07 1994.91 2121.38 1994.69Z" fill="#F0F0F0"/>
<path d="M2034.23 2054.26C2034.12 2052.44 2032.56 2051 2030.66 2051C2029.12 2051 2027.8 2051.95 2027.3 2053.28C2026.64 2052.57 2025.68 2052.12 2024.62 2052.12C2022.62 2052.12 2021 2053.69 2021 2055.63C2021 2056.97 2021.77 2058.13 2022.9 2058.72C2022.35 2059.33 2022.01 2060.13 2022.01 2061.01C2022.01 2062.93 2023.62 2064.48 2025.6 2064.48C2026.28 2064.48 2026.92 2064.3 2027.46 2063.97L2027.48 2063.98C2027.44 2064.14 2027.42 2064.31 2027.42 2064.48C2027.42 2065.87 2028.59 2067 2030.02 2067C2031.45 2067 2032.61 2065.87 2032.61 2064.48C2032.61 2064.28 2032.59 2064.08 2032.54 2063.89C2032.98 2064.02 2033.45 2064.08 2033.94 2064.08C2036.73 2064.08 2039 2061.88 2039 2059.17C2039 2056.55 2036.89 2054.41 2034.23 2054.26Z" fill="#F0F0F0"/>
<path d="M1518.43 831.254C1499.45 831.254 1481.69 836.464 1466.49 845.509C1462.86 792.596 1418.82 750.795 1364.98 750.795C1351.86 750.795 1339.33 753.307 1327.81 757.829C1313.15 708.769 1267.7 673 1213.87 673C1148.18 673 1094.93 726.248 1094.93 791.933C1094.93 793.616 1094.99 795.281 1095.06 796.942L1094.93 796.939C1029.25 796.939 976 850.186 976 915.872C976 981.558 1029.25 1034.81 1094.93 1034.81C1099.04 1034.81 1103.09 1034.6 1107.08 1034.19H1507.33C1510.98 1034.59 1514.68 1034.81 1518.43 1034.81C1574.64 1034.81 1620.2 989.24 1620.2 933.03C1620.2 876.819 1574.64 831.254 1518.43 831.254Z" fill="url(#paint1_linear_7_136)"/>
<path d="M3323.39 1492C3339.2 1492 3353.98 1496.33 3366.64 1503.87C3369.66 1459.81 3406.34 1425 3451.16 1425C3462.09 1425 3472.52 1427.1 3482.11 1430.86C3494.32 1390.01 3532.17 1360.23 3576.99 1360.23C3631.68 1360.23 3676.01 1404.56 3676.01 1459.26C3676.01 1460.65 3675.96 1462.04 3675.91 1463.43L3676.01 1463.42C3730.7 1463.42 3775.04 1507.76 3775.04 1562.45C3775.04 1617.14 3730.7 1661.48 3676.01 1661.48C3672.6 1661.48 3669.22 1661.31 3665.9 1660.97H3332.63C3329.59 1661.3 3326.52 1661.48 3323.39 1661.48C3276.59 1661.48 3238.65 1623.54 3238.65 1576.74C3238.65 1529.94 3276.59 1492 3323.39 1492Z" fill="url(#paint2_linear_7_136)"/>
<path d="M811.844 1539.06C820.495 1539.06 828.59 1541.44 835.525 1545.56C837.179 1521.44 857.259 1502.38 881.802 1502.38C887.785 1502.38 893.496 1503.52 898.747 1505.59C905.433 1483.22 926.157 1466.91 950.698 1466.91C980.643 1466.91 1004.92 1491.19 1004.92 1521.14C1004.92 1521.9 1004.89 1522.66 1004.86 1523.42H1004.92C1034.87 1523.42 1059.14 1547.69 1059.14 1577.64C1059.14 1607.59 1034.87 1631.86 1004.92 1631.86C1003.05 1631.86 1001.2 1631.77 999.383 1631.59H816.903C815.241 1631.77 813.554 1631.86 811.844 1631.86C786.216 1631.86 765.442 1611.09 765.442 1585.46C765.442 1559.84 786.216 1539.06 811.844 1539.06Z" fill="url(#paint3_linear_7_136)"/>
<path d="M1880.4 203.148C1889.05 203.148 1897.15 205.525 1904.08 209.645C1905.74 185.524 1925.82 166.465 1950.36 166.465C1956.34 166.465 1962.05 167.608 1967.3 169.672C1973.99 147.307 1994.71 131 2019.26 131C2049.2 131 2073.48 155.272 2073.48 185.221C2073.48 185.983 2073.45 186.745 2073.42 187.503H2073.48C2103.43 187.503 2127.7 211.779 2127.7 241.724C2127.7 271.673 2103.43 295.949 2073.48 295.949C2071.61 295.949 2069.76 295.854 2067.94 295.671H1885.46C1883.8 295.85 1882.11 295.949 1880.4 295.949C1854.77 295.949 1834 275.176 1834 249.548C1834 223.921 1854.77 203.148 1880.4 203.148Z" fill="url(#paint4_linear_7_136)"/>
<path d="M3049.77 820.236C3038.88 820.236 3028.68 823.228 3019.95 828.417C3017.87 798.045 2992.59 774.051 2961.69 774.051C2955.01 774.051 2948.62 775.24 2942.65 777.307C2934.03 749.468 2908.09 729.241 2877.43 729.241C2875.12 729.241 2872.85 729.393 2870.61 729.615C2841.96 731.421 2818.1 750.819 2809.82 777.183C2803.81 775.098 2797.4 773.899 2790.68 773.899C2759.78 773.899 2734.51 797.893 2732.42 828.265C2723.69 823.072 2713.5 820.081 2702.61 820.081C2670.34 820.081 2644.18 846.238 2644.18 878.5C2644.18 910.766 2670.34 936.922 2702.61 936.922C2704.76 936.922 2706.88 936.795 2708.97 936.57H2798.7C2801.32 936.877 2803.98 937.074 2806.68 937.074C2809.03 937.074 2811.36 936.954 2813.65 936.725H2941.76C2943.07 936.799 2944.37 936.922 2945.69 936.922C2947.02 936.922 2948.31 936.799 2949.62 936.725H3043.4C3045.49 936.951 3047.62 937.074 3049.77 937.074C3082.03 937.074 3108.19 910.921 3108.19 878.655C3108.19 846.389 3082.03 820.236 3049.77 820.236Z" fill="url(#paint5_linear_7_136)"/>
<mask id="mask0_7_136" style="mask-type:luminance" maskUnits="userSpaceOnUse" x="2134" y="1921" width="87" height="96">
<path d="M2204.57 1921.32H2150.03C2150.03 1921.32 2132.15 1940.05 2134.61 1967.63C2134.61 1967.63 2139.66 1961.91 2143.68 1958.94C2144.41 1958.4 2145.42 1959.02 2145.28 1959.91C2144.31 1966.14 2145.14 1984.83 2177.3 2016.57C2209.45 1984.83 2210.28 1966.14 2209.32 1959.91C2209.18 1959.02 2210.18 1958.4 2210.91 1958.94C2214.93 1961.91 2219.99 1967.63 2219.99 1967.63C2222.45 1940.05 2204.57 1921.32 2204.57 1921.32Z" fill="white"/>
</mask>
<g mask="url(#mask0_7_136)">
<path d="M2204.57 1921.32H2150.03C2150.03 1921.32 2132.15 1940.05 2134.61 1967.63C2134.61 1967.63 2139.66 1961.91 2143.68 1958.94C2144.41 1958.4 2145.42 1959.02 2145.28 1959.91C2144.31 1966.14 2145.14 1984.83 2177.3 2016.57C2209.45 1984.83 2210.28 1966.14 2209.32 1959.91C2209.18 1959.02 2210.18 1958.4 2210.91 1958.94C2214.93 1961.91 2219.99 1967.63 2219.99 1967.63C2222.45 1940.05 2204.57 1921.32 2204.57 1921.32Z" fill="url(#paint6_linear_7_136)"/>
</g>
<path d="M2177.5 1900V1900.02C2177.5 1900.02 2142.63 1927.93 2177.5 1976V1975.98C2212.38 1927.91 2177.5 1900 2177.5 1900Z" fill="#FBE680"/>
<path d="M2177 1918V1918.01C2177 1918.01 2156.75 1934.54 2177 1963V1962.99C2197.25 1934.53 2177 1918 2177 1918Z" fill="white"/>
<path d="M2138 1909L2141.97 1916.09C2143.65 1919.11 2147.02 1921 2150.69 1921H2176.98H2177.02H2203.31C2206.98 1921 2210.35 1919.11 2212.03 1916.09L2216 1909H2138Z" fill="#909190"/>
<path d="M2138.45 1909.4L2137.13 1910.04L2141.1 1917.25C2143.04 1920.78 2146.92 1923 2151.15 1923H2177.48H2177.52H2203.85C2208.08 1923 2211.96 1920.78 2213.9 1917.25L2219 1908H2136L2137.13 1910.04L2138.45 1909.4V1910.8H2214.1L2211.26 1915.96C2209.82 1918.57 2206.97 1920.2 2203.85 1920.2H2177.52H2177.48H2151.15C2148.03 1920.2 2145.18 1918.57 2143.74 1915.96L2139.77 1908.76L2138.45 1909.4Z" fill="#3C3C3D"/>
<path d="M2127 1895L2132.08 1904.45C2134.25 1908.47 2138.56 1911 2143.27 1911H2176.97H2177.03H2210.73C2215.44 1911 2219.75 1908.47 2221.91 1904.45L2227 1895H2127Z" fill="#464648"/>
<path d="M2127.44 1894.51L2126.12 1895.21L2131.21 1905.23C2133.63 1910.01 2138.46 1913 2143.72 1913H2177.47H2177.53H2211.28C2216.54 1913 2221.37 1910.01 2223.79 1905.23L2230 1893H2125L2126.12 1895.21L2127.44 1894.51V1896.03H2225.13L2221.16 1903.84C2219.24 1907.61 2215.43 1909.97 2211.28 1909.97H2177.53H2177.47H2143.72C2139.57 1909.97 2135.76 1907.61 2133.84 1903.84L2128.75 1893.82L2127.44 1894.51Z" fill="#3C3C3D"/>
<path d="M2225.27 1819C2225.27 1819 2311.22 1848.29 2305.75 1934C2305.75 1934 2233.39 1860.85 2194 1876.5L2225.27 1819Z" fill="#E12125"/>
<path d="M2129.01 1819C2129.01 1819 2043.83 1848.29 2049.25 1934C2049.25 1934 2120.97 1860.85 2160 1876.5L2129.01 1819Z" fill="#E12125"/>
<path d="M2218 1650C2208.32 1625.63 2195.13 1601.84 2177.36 1580L2177.35 1580.1L2177.33 1580C2159.74 1601.61 2146.65 1625.14 2137 1649.25C2155.81 1644.74 2184.2 1641.69 2218 1650Z" fill="#E12125"/>
<path d="M2124.53 1890.81C2125.08 1893.56 2127.47 1895.5 2130.22 1895.5H2136.63H2218.04H2223.78C2226.53 1895.5 2228.92 1893.56 2229.47 1890.81C2235.47 1860.98 2252.27 1755.69 2215.2 1658.96L2214.92 1658.23C2193.69 1653.06 2174.52 1652.92 2160.5 1654.12C2153.26 1654.74 2147.41 1655.72 2143.39 1656.54C2141.74 1656.87 2140.39 1657.18 2139.4 1657.43L2139.15 1658.07L2138.8 1658.96C2101.73 1755.69 2118.53 1860.98 2124.53 1890.81ZM2124.53 1890.81L2120.12 1891.7L2124.53 1890.81Z" fill="url(#paint7_linear_7_136)" stroke="#EFB545" stroke-width="9"/>
<path d="M2210 1734C2210 1753.33 2194.33 1769 2175 1769C2155.67 1769 2140 1753.33 2140 1734C2140 1714.67 2155.67 1699 2175 1699C2194.33 1699 2210 1714.67 2210 1734Z" fill="#162E42"/>
<path d="M2210.52 1734H2209.03C2209.03 1743.14 2205.28 1751.4 2199.21 1757.39C2193.14 1763.37 2184.76 1767.07 2175.5 1767.07C2166.24 1767.07 2157.86 1763.37 2151.79 1757.39C2145.72 1751.4 2141.97 1743.14 2141.97 1734C2141.97 1724.86 2145.72 1716.6 2151.79 1710.61C2157.86 1704.63 2166.24 1700.93 2175.5 1700.93C2184.76 1700.93 2193.14 1704.63 2199.21 1710.61C2205.28 1716.6 2209.03 1724.86 2209.03 1734H2210.52H2212C2212 1714.12 2195.66 1698 2175.5 1698C2155.34 1698 2139 1714.12 2139 1734C2139 1753.88 2155.34 1770 2175.5 1770C2195.66 1770 2212 1753.88 2212 1734H2210.52Z" fill="#3C3C3D"/>
<path d="M2203 1735C2203 1749.91 2191.14 1762 2176.5 1762C2161.86 1762 2150 1749.91 2150 1735C2150 1720.09 2161.86 1708 2176.5 1708C2191.14 1708 2203 1720.09 2203 1735Z" fill="#D6F6FF"/>
<path d="M2203.53 1735H2202.06C2202.06 1741.92 2199.26 1748.18 2194.72 1752.72C2190.18 1757.26 2183.92 1760.06 2177 1760.06C2170.08 1760.06 2163.82 1757.26 2159.28 1752.72C2154.74 1748.18 2151.94 1741.92 2151.94 1735C2151.94 1728.08 2154.74 1721.82 2159.28 1717.28C2163.82 1712.74 2170.08 1709.94 2177 1709.94C2183.92 1709.94 2190.18 1712.74 2194.72 1717.28C2199.26 1721.82 2202.06 1728.08 2202.06 1735H2203.53H2205C2205 1719.54 2192.46 1707 2177 1707C2161.54 1707 2149 1719.54 2149 1735C2149 1750.46 2161.54 1763 2177 1763C2192.46 1763 2205 1750.46 2205 1735H2203.53Z" fill="#3C3C3D"/>
<path d="M2151 1728C2152.06 1723.47 2154.36 1719.43 2157.52 1716.24C2161.97 1711.77 2168.09 1709 2174.87 1709C2174.89 1709 2174.92 1709 2174.94 1709C2174.95 1709 2174.95 1709 2174.95 1709C2174.98 1709 2175 1709 2175.02 1709H2175.03C2175.52 1709 2176.02 1709.02 2176.51 1709.06C2176.53 1709.06 2176.54 1709.06 2176.55 1709.06C2176.56 1709.06 2176.57 1709.06 2176.58 1709.06C2176.6 1709.06 2176.61 1709.06 2176.63 1709.06C2176.63 1709.06 2176.64 1709.06 2176.64 1709.06C2181.23 1709.39 2185.46 1711 2189 1713.53C2185.26 1711.59 2181.02 1710.5 2176.53 1710.5C2164.93 1710.5 2155.02 1717.75 2151 1728Z" fill="#565D63"/>
<path d="M2201.52 1733.5H2200.03C2200.03 1740.54 2197.23 1746.9 2192.7 1751.52C2188.17 1756.13 2181.92 1758.98 2175 1758.98C2168.08 1758.98 2161.83 1756.13 2157.3 1751.52C2152.77 1746.9 2149.97 1740.54 2149.97 1733.5C2149.97 1726.46 2152.77 1720.1 2157.3 1715.48C2161.83 1710.87 2168.08 1708.02 2175 1708.02C2181.92 1708.02 2188.17 1710.87 2192.7 1715.48C2197.23 1720.1 2200.03 1726.46 2200.03 1733.5H2201.52H2203C2203 1717.76 2190.46 1705 2175 1705C2159.54 1705 2147 1717.76 2147 1733.5C2147 1749.24 2159.54 1762 2175 1762C2190.46 1762 2203 1749.24 2203 1733.5H2201.52Z" fill="#3C3C3D"/>
<path d="M2149.82 1746C2148.09 1742.36 2147.07 1738.29 2147 1733.98C2147 1733.98 2147 1733.98 2147 1733.98C2147 1733.96 2147 1733.93 2147 1733.91C2147 1733.89 2147 1733.87 2147 1733.85C2147 1733.85 2147 1733.84 2147 1733.84C2147 1733.81 2147 1733.78 2147 1733.75C2147 1733.75 2147 1733.75 2147 1733.75C2147 1733.72 2147 1733.69 2147 1733.66C2147 1733.63 2147 1733.59 2147 1733.56C2147 1717.79 2159.54 1705 2175.02 1705C2175.04 1705 2175.07 1705 2175.09 1705C2175.12 1705 2175.13 1705 2175.16 1705C2175.16 1705 2175.17 1705 2175.17 1705C2187.99 1705.07 2198.75 1713.93 2202 1725.96L2199.24 1727.02C2198.09 1722.6 2195.81 1718.65 2192.73 1715.51C2188.59 1711.29 2183.03 1708.54 2176.83 1708.09C2176.82 1708.09 2176.82 1708.09 2176.82 1708.09C2176.8 1708.09 2176.78 1708.09 2176.77 1708.09C2176.75 1708.09 2176.74 1708.09 2176.73 1708.09C2176.72 1708.09 2176.71 1708.08 2176.7 1708.08C2176.19 1708.05 2175.69 1708.03 2175.18 1708.03H2175.18C2175.15 1708.03 2175.13 1708.03 2175.1 1708.03C2175.1 1708.03 2175.1 1708.03 2175.1 1708.03C2175.07 1708.03 2175.04 1708.03 2175.02 1708.03C2168.09 1708.03 2161.84 1710.88 2157.3 1715.51C2152.77 1720.13 2149.97 1726.51 2149.97 1733.56C2149.97 1737.65 2150.91 1741.52 2152.58 1744.94L2149.82 1746Z" fill="#565D63"/>
<path d="M2177 1830C2147.75 1894.9 2177 1951 2177 1951C2177 1951 2206.25 1894.9 2177 1830Z" fill="#E12125"/>
</g>
<defs>
<linearGradient id="paint0_linear_7_136" x1="2172.37" y1="1985.17" x2="2306.3" y2="2189.99" gradientUnits="userSpaceOnUse">
<stop stop-color="#EC9A00"/>
<stop offset="1" stop-color="#FFE81E"/>
</linearGradient>
<linearGradient id="paint1_linear_7_136" x1="976" y1="1034.92" x2="1549.57" y2="852.868" gradientUnits="userSpaceOnUse">
<stop stop-color="#E4E4E4"/>
<stop offset="1" stop-color="#F0F0F0" stop-opacity="0.69"/>
</linearGradient>
<linearGradient id="paint2_linear_7_136" x1="3238.65" y1="1661.58" x2="3716.23" y2="1510" gradientUnits="userSpaceOnUse">
<stop stop-color="#E4E4E4"/>
<stop offset="1" stop-color="#F0F0F0" stop-opacity="0.69"/>
</linearGradient>
<linearGradient id="paint3_linear_7_136" x1="765.442" y1="1631.92" x2="1026.94" y2="1548.92" gradientUnits="userSpaceOnUse">
<stop stop-color="#E4E4E4"/>
<stop offset="1" stop-color="#F0F0F0" stop-opacity="0.69"/>
</linearGradient>
<linearGradient id="paint4_linear_7_136" x1="1834" y1="296" x2="2095.5" y2="213" gradientUnits="userSpaceOnUse">
<stop stop-color="#E4E4E4"/>
<stop offset="1" stop-color="#F0F0F0" stop-opacity="0.69"/>
</linearGradient>
<linearGradient id="paint5_linear_7_136" x1="2644.18" y1="937.138" x2="3036.76" y2="780.904" gradientUnits="userSpaceOnUse">
<stop stop-color="#E4E4E4"/>
<stop offset="1" stop-color="#F0F0F0" stop-opacity="0.69"/>
</linearGradient>
<linearGradient id="paint6_linear_7_136" x1="2177.3" y1="1921.32" x2="2177.3" y2="2016.57" gradientUnits="userSpaceOnUse">
<stop stop-color="#F5B655"/>
<stop offset="0.00558659" stop-color="#F5B655"/>
<stop offset="1" stop-color="#EE502D"/>
</linearGradient>
<linearGradient id="paint7_linear_7_136" x1="2177" y1="1900" x2="2305.29" y2="1721.85" gradientUnits="userSpaceOnUse">
<stop stop-color="#EC9A00"/>
<stop offset="1" stop-color="#FFE81E"/>
</linearGradient>
<clipPath id="clip0_7_136">
<rect width="4343" height="2178" fill="white"/>
</clipPath>
</defs>
</svg>
