<svg width="2829" height="2178" viewBox="0 0 2829 2178" fill="none" xmlns="http://www.w3.org/2000/svg">
<g clip-path="url(#clip0_5_81)">
<rect width="2829" height="2178" fill="white"/>
<g clip-path="url(#clip1_5_81)">
<path d="M738.817 2182.86L-6.6665 2183.52V2824.01H2829.3V2188.66H1995.25C1991.4 2088.74 1909.22 2008.91 1808.36 2008.91C1781.27 2008.91 1755.55 2014.71 1732.31 2025.07C1720.32 1976.93 1676.92 1941.2 1625.06 1941.2L1624.94 1941.21C1624.86 1939.21 1624.72 1937.23 1624.48 1935.28C1624.84 1932.51 1625.06 1929.68 1625.06 1926.81C1625.06 1889.94 1595.17 1860.05 1558.3 1860.05C1549.86 1860.05 1541.82 1861.68 1534.39 1864.53C1530.59 1839.03 1512.44 1818.22 1488.36 1810.7L1455.74 1724.6H1402.86L1370.81 1809.17C1366.69 1808.22 1362.41 1807.67 1358 1807.67C1326.34 1807.67 1300.68 1833.33 1300.68 1864.99C1300.68 1867.83 1300.97 1870.6 1301.38 1873.33C1301.28 1873.95 1301.17 1874.56 1301.09 1875.19C1291.87 1871.77 1281.92 1869.8 1271.5 1869.8C1224.43 1869.8 1186.27 1907.91 1186.16 1954.95C1183.22 1954.46 1180.22 1954.15 1177.14 1954.15C1155.1 1954.15 1136.15 1967.2 1127.46 1985.97C1097.96 1966.52 1062.63 1955.16 1024.64 1955.16C921.326 1955.16 837.566 2038.92 837.566 2142.24C837.566 2144.98 837.661 2147.7 837.788 2150.4C837.746 2151.29 837.749 2152.19 837.718 2153.08C827.957 2138.06 811.074 2128.1 791.825 2128.1C761.584 2128.1 734.383 2157.91 734.383 2188.15" fill="url(#paint0_linear_5_81)"/>
<path d="M1848.15 1917.39C1847.54 1907.19 1839.08 1899.11 1828.72 1899.11C1820.34 1899.11 1813.2 1904.41 1810.45 1911.84C1806.86 1907.88 1801.67 1905.39 1795.89 1905.39C1785.04 1905.39 1776.23 1914.2 1776.23 1925.06C1776.23 1932.53 1780.4 1939.03 1786.54 1942.36C1783.55 1945.78 1781.75 1950.25 1781.75 1955.14C1781.75 1965.89 1790.46 1974.6 1801.21 1974.6C1804.93 1974.6 1808.4 1973.56 1811.35 1971.75L1811.43 1971.8C1811.25 1972.7 1811.15 1973.64 1811.15 1974.6C1811.15 1982.39 1817.46 1988.7 1825.25 1988.7C1833.04 1988.7 1839.35 1982.39 1839.35 1974.6C1839.35 1973.46 1839.2 1972.36 1838.94 1971.3C1841.36 1971.99 1843.9 1972.37 1846.54 1972.37C1861.73 1972.37 1874.05 1960.05 1874.05 1944.85C1874.05 1930.2 1862.59 1918.22 1848.15 1917.39Z" fill="white"/>
<path d="M1167.45 1794.66C1166.83 1784.46 1158.37 1776.38 1148.02 1776.38C1139.64 1776.38 1132.49 1781.68 1129.76 1789.11C1126.16 1785.15 1120.97 1782.66 1115.19 1782.66C1104.33 1782.66 1095.53 1791.47 1095.53 1802.33C1095.53 1809.8 1099.7 1816.3 1105.84 1819.63C1102.86 1823.05 1101.05 1827.51 1101.05 1832.41C1101.05 1843.16 1109.76 1851.87 1120.51 1851.87C1124.22 1851.87 1127.7 1850.83 1130.65 1849.02L1130.73 1849.07C1130.55 1849.97 1130.45 1850.91 1130.45 1851.87C1130.45 1859.66 1136.76 1865.97 1144.55 1865.97C1152.34 1865.97 1158.65 1859.66 1158.65 1851.87C1158.65 1850.73 1158.5 1849.63 1158.24 1848.57C1160.66 1849.26 1163.2 1849.64 1165.84 1849.64C1181.03 1849.64 1193.35 1837.31 1193.35 1822.12C1193.35 1807.47 1181.89 1795.49 1167.45 1794.66Z" fill="white"/>
<path d="M1937.89 1968.04C1937.62 1963.48 1933.84 1959.87 1929.21 1959.87C1925.46 1959.87 1922.27 1962.24 1921.04 1965.56C1919.43 1963.79 1917.11 1962.68 1914.53 1962.68C1909.67 1962.68 1905.74 1966.62 1905.74 1971.47C1905.74 1974.81 1907.6 1977.72 1910.35 1979.21C1909.01 1980.74 1908.2 1982.73 1908.2 1984.92C1908.2 1989.73 1912.1 1993.62 1916.9 1993.62C1918.57 1993.62 1920.12 1993.16 1921.44 1992.35L1921.48 1992.37C1921.39 1992.78 1921.35 1993.2 1921.35 1993.62C1921.35 1997.11 1924.17 1999.93 1927.66 1999.93C1931.14 1999.93 1933.96 1997.11 1933.96 1993.62C1933.96 1993.11 1933.89 1992.62 1933.78 1992.15C1934.85 1992.46 1935.99 1992.63 1937.17 1992.63C1943.97 1992.63 1949.47 1987.12 1949.47 1980.32C1949.47 1973.77 1944.35 1968.42 1937.89 1968.04Z" fill="white"/>
<path d="M1289.95 1746.02C1289.59 1740 1284.59 1735.22 1278.48 1735.22C1273.53 1735.22 1269.31 1738.36 1267.69 1742.75C1265.56 1740.41 1262.5 1738.94 1259.09 1738.94C1252.68 1738.94 1247.48 1744.13 1247.48 1750.55C1247.48 1754.96 1249.94 1758.8 1253.56 1760.76C1251.8 1762.79 1250.73 1765.43 1250.73 1768.31C1250.73 1774.66 1255.88 1779.81 1262.23 1779.81C1264.42 1779.81 1266.47 1779.19 1268.22 1778.12L1268.26 1778.15C1268.15 1778.69 1268.1 1779.24 1268.1 1779.81C1268.1 1784.4 1271.83 1788.13 1276.43 1788.13C1281.02 1788.13 1284.75 1784.4 1284.75 1779.81C1284.75 1779.13 1284.67 1778.48 1284.51 1777.86C1285.94 1778.26 1287.44 1778.49 1289 1778.49C1297.97 1778.49 1305.25 1771.21 1305.25 1762.24C1305.25 1753.58 1298.48 1746.51 1289.95 1746.02Z" fill="white"/>
<path d="M1083.95 1887.25C1083.68 1882.69 1079.89 1879.08 1075.26 1879.08C1071.51 1879.08 1068.32 1881.45 1067.09 1884.78C1065.48 1883 1063.17 1881.89 1060.59 1881.89C1055.73 1881.89 1051.79 1885.82 1051.79 1890.68C1051.79 1894.02 1053.65 1896.93 1056.4 1898.42C1055.07 1899.94 1054.26 1901.94 1054.26 1904.13C1054.26 1908.94 1058.15 1912.84 1062.96 1912.84C1064.62 1912.84 1066.18 1912.37 1067.5 1911.56L1067.53 1911.58C1067.45 1911.99 1067.4 1912.41 1067.4 1912.84C1067.4 1916.32 1070.23 1919.14 1073.71 1919.14C1077.19 1919.14 1080.01 1916.32 1080.01 1912.84C1080.01 1912.32 1079.95 1911.83 1079.83 1911.36C1080.91 1911.67 1082.05 1911.83 1083.23 1911.83C1090.02 1911.83 1095.53 1906.33 1095.53 1899.53C1095.53 1892.98 1090.41 1887.63 1083.95 1887.25Z" fill="white"/>
<path d="M294.014 1046.64C275.035 1046.64 257.28 1051.85 242.073 1060.9C238.443 1007.99 194.402 966.186 140.568 966.186C127.446 966.186 114.918 968.698 103.4 973.22C88.7362 924.16 43.2822 888.391 -10.5465 888.391C-76.2309 888.391 -129.478 941.638 -129.478 1007.32C-129.478 1009.01 -129.422 1010.67 -129.353 1012.33L-129.478 1012.33C-195.164 1012.33 -248.413 1065.58 -248.413 1131.26C-248.413 1196.95 -195.164 1250.2 -129.478 1250.2C-125.378 1250.2 -121.326 1249.99 -117.332 1249.58H282.921C286.564 1249.98 290.262 1250.2 294.014 1250.2C350.223 1250.2 395.789 1204.63 395.789 1148.42C395.789 1092.21 350.223 1046.64 294.014 1046.64Z" fill="#EC9A00"/>
<path d="M2562.39 1492C2578.2 1492 2592.98 1496.33 2605.64 1503.87C2608.66 1459.81 2645.34 1425 2690.16 1425C2701.09 1425 2711.52 1427.1 2721.11 1430.86C2733.32 1390.01 2771.17 1360.23 2815.99 1360.23C2870.68 1360.23 2915.01 1404.56 2915.01 1459.26C2915.01 1460.65 2914.96 1462.04 2914.91 1463.43L2915.01 1463.42C2969.7 1463.42 3014.04 1507.76 3014.04 1562.45C3014.04 1617.14 2969.7 1661.48 2915.01 1661.48C2911.6 1661.48 2908.22 1661.31 2904.9 1660.97H2571.63C2568.59 1661.3 2565.52 1661.48 2562.39 1661.48C2515.59 1661.48 2477.65 1623.54 2477.65 1576.74C2477.65 1529.94 2515.59 1492 2562.39 1492Z" fill="#EC9A00"/>
<path d="M50.8442 1539.06C59.4947 1539.06 67.59 1541.44 74.5254 1545.56C76.1787 1521.44 96.2594 1502.38 120.802 1502.38C126.785 1502.38 132.496 1503.52 137.747 1505.59C144.433 1483.22 165.157 1466.91 189.698 1466.91C219.643 1466.91 243.921 1491.19 243.921 1521.14C243.921 1521.9 243.895 1522.66 243.862 1523.42H243.921C273.868 1523.42 298.144 1547.69 298.144 1577.64C298.144 1607.59 273.868 1631.86 243.921 1631.86C242.053 1631.86 240.203 1631.77 238.383 1631.59H55.9027C54.2409 1631.77 52.554 1631.86 50.8442 1631.86C25.216 1631.86 4.44238 1611.09 4.44238 1585.46C4.44238 1559.84 25.216 1539.06 50.8442 1539.06Z" fill="#EC9A00"/>
<path d="M2288.77 820.236C2277.88 820.236 2267.68 823.227 2258.95 828.416C2256.87 798.044 2231.59 774.05 2200.69 774.05C2194.01 774.05 2187.62 775.239 2181.65 777.306C2173.03 749.467 2147.09 729.24 2116.43 729.24C2114.12 729.24 2111.85 729.392 2109.61 729.614C2080.96 731.42 2057.1 750.818 2048.82 777.183C2042.81 775.098 2036.4 773.899 2029.68 773.899C1998.78 773.899 1973.51 797.893 1971.42 828.264C1962.69 823.072 1952.5 820.081 1941.61 820.081C1909.34 820.081 1883.18 846.237 1883.18 878.5C1883.18 910.766 1909.34 936.922 1941.61 936.922C1943.76 936.922 1945.88 936.795 1947.97 936.569H2037.7C2040.32 936.876 2042.98 937.074 2045.68 937.074C2048.03 937.074 2050.36 936.954 2052.65 936.725H2180.76C2182.07 936.799 2183.37 936.922 2184.69 936.922C2186.02 936.922 2187.31 936.799 2188.62 936.725H2282.4C2284.49 936.95 2286.62 937.074 2288.77 937.074C2321.03 937.074 2347.19 910.921 2347.19 878.655C2347.19 846.389 2321.03 820.236 2288.77 820.236Z" fill="#EC9A00"/>
<mask id="mask0_5_81" style="mask-type:luminance" maskUnits="userSpaceOnUse" x="1321" y="1571" width="204" height="227">
<path d="M1487.64 1571.75H1358.22C1358.22 1571.75 1315.78 1616.22 1321.62 1681.65C1321.62 1681.65 1333.62 1668.07 1343.16 1661.03C1344.89 1659.74 1347.28 1661.21 1346.95 1663.34C1344.65 1678.12 1346.62 1722.46 1422.93 1797.79C1499.24 1722.46 1501.2 1678.12 1498.91 1663.34C1498.58 1661.21 1500.97 1659.74 1502.7 1661.03C1512.24 1668.07 1524.24 1681.65 1524.24 1681.65C1530.08 1616.22 1487.64 1571.75 1487.64 1571.75Z" fill="white"/>
</mask>
<g mask="url(#mask0_5_81)">
<path d="M1487.64 1571.75H1358.22C1358.22 1571.75 1315.78 1616.22 1321.62 1681.65C1321.62 1681.65 1333.62 1668.07 1343.16 1661.03C1344.89 1659.74 1347.28 1661.21 1346.95 1663.34C1344.65 1678.12 1346.62 1722.46 1422.93 1797.79C1499.24 1722.46 1501.2 1678.12 1498.91 1663.34C1498.58 1661.21 1500.97 1659.74 1502.7 1661.03C1512.24 1668.07 1524.24 1681.65 1524.24 1681.65C1530.08 1616.22 1487.64 1571.75 1487.64 1571.75Z" fill="url(#paint1_linear_5_81)"/>
</g>
<path d="M1422.56 1521.31V1521.35C1422.56 1521.35 1339.69 1587.12 1422.56 1700.41V1700.38C1505.43 1587.08 1422.56 1521.31 1422.56 1521.31Z" fill="#FBE680"/>
<path d="M1422.56 1563.36V1563.38C1422.56 1563.38 1373.03 1602.69 1422.56 1670.4V1670.37C1472.09 1602.66 1422.56 1563.36 1422.56 1563.36Z" fill="white"/>
<path d="M1329.57 1542.05L1338.98 1560.21C1342.98 1567.94 1350.97 1572.79 1359.67 1572.79H1422.05H1422.14H1484.52C1493.23 1572.79 1501.21 1567.94 1505.22 1560.21L1514.62 1542.05H1329.57Z" fill="#909190"/>
<path d="M1329.57 1542.05L1326.44 1543.68L1335.85 1561.83C1340.46 1570.73 1349.65 1576.32 1359.67 1576.32H1422.05H1422.14H1484.52C1494.55 1576.32 1503.73 1570.73 1508.35 1561.83L1520.42 1538.53H1323.77L1326.44 1543.68L1329.57 1542.05V1545.58H1508.82L1502.08 1558.59C1498.68 1565.14 1491.91 1569.26 1484.52 1569.26H1422.14H1422.05H1359.67C1352.28 1569.26 1345.51 1565.14 1342.11 1558.59L1332.7 1540.43L1329.57 1542.05Z" fill="#3C3C3D"/>
<path d="M1302.9 1507.63L1315.02 1531.01C1320.18 1540.97 1330.46 1547.22 1341.68 1547.22H1422.03H1422.16H1502.51C1513.73 1547.22 1524.01 1540.97 1529.17 1531.01L1541.29 1507.63H1302.9Z" fill="#464648"/>
<path d="M1302.9 1507.63L1299.77 1509.26L1311.89 1532.64C1317.66 1543.76 1329.15 1550.75 1341.68 1550.75H1422.03H1422.16H1502.51C1515.04 1550.75 1526.53 1543.76 1532.3 1532.64L1547.09 1504.11H1297.1L1299.77 1509.26L1302.9 1507.63V1511.16H1535.49L1526.04 1529.39C1521.48 1538.18 1512.41 1543.69 1502.51 1543.69H1422.16H1422.03H1341.68C1331.78 1543.69 1322.71 1538.18 1318.16 1529.39L1306.04 1506.01L1302.9 1507.63Z" fill="#3C3C3D"/>
<path d="M1537.04 1328.51C1537.04 1328.51 1739.9 1398.19 1727 1602.06C1727 1602.06 1556.21 1428.05 1463.25 1465.29L1537.04 1328.51Z" fill="#E12125"/>
<path d="M1308.82 1328.51C1308.82 1328.51 1105.96 1398.19 1118.86 1602.06C1118.86 1602.06 1289.65 1428.05 1382.61 1465.29L1308.82 1328.51Z" fill="#E12125"/>
<path d="M1520.61 938.767C1497.14 879.83 1465.16 822.307 1422.06 769.497L1422.03 769.729L1422 769.497C1379.34 821.76 1347.59 878.644 1324.2 936.943C1369.81 926.04 1438.66 918.671 1520.61 938.767Z" fill="#E12125"/>
<path d="M1519.1 947.309L1517.65 943.557L1517.26 942.561C1464.49 929.343 1416.77 928.943 1382.09 931.895C1364.51 933.391 1350.3 935.747 1340.51 937.723C1335.62 938.71 1331.83 939.602 1329.28 940.243C1328.62 940.409 1328.05 940.557 1327.56 940.686L1325.79 945.179L1324.96 947.312C1235.77 1178.27 1276.19 1429.27 1290.58 1500.24C1292.47 1509.59 1300.72 1516.3 1310.29 1516.3H1325.61H1520.06H1533.77C1543.34 1516.3 1551.59 1509.59 1553.49 1500.24C1567.86 1429.26 1608.3 1178.26 1519.1 947.309Z" fill="url(#paint2_linear_5_81)" stroke="#3C3C3D" stroke-width="9"/>
<path d="M1501.21 1126.44C1501.21 1172.39 1463.96 1209.65 1418.01 1209.65C1372.05 1209.65 1334.8 1172.39 1334.8 1126.44C1334.8 1080.49 1372.05 1043.23 1418.01 1043.23C1463.96 1043.23 1501.21 1080.49 1501.21 1126.44Z" fill="#162E42"/>
<path d="M1501.21 1126.44H1497.68C1497.68 1148.46 1488.77 1168.35 1474.35 1182.78C1459.92 1197.21 1440.02 1206.12 1418.01 1206.12C1395.99 1206.12 1376.1 1197.21 1361.66 1182.78C1347.24 1168.35 1338.33 1148.46 1338.33 1126.44C1338.33 1104.43 1347.24 1084.53 1361.66 1070.1C1376.1 1055.67 1395.99 1046.76 1418.01 1046.76C1440.02 1046.76 1459.92 1055.67 1474.35 1070.1C1488.77 1084.53 1497.68 1104.43 1497.68 1126.44H1501.21H1504.74C1504.74 1078.54 1465.91 1039.71 1418.01 1039.71C1370.1 1039.71 1331.28 1078.54 1331.27 1126.44C1331.28 1174.34 1370.1 1213.17 1418.01 1213.17C1465.91 1213.17 1504.74 1174.34 1504.74 1126.44H1501.21Z" fill="#3C3C3D"/>
<path d="M1485.7 1130.31C1485.7 1165.48 1457.2 1193.98 1422.03 1193.98C1386.87 1193.98 1358.37 1165.48 1358.37 1130.31C1358.37 1095.15 1386.87 1066.65 1422.03 1066.65C1457.2 1066.65 1485.7 1095.15 1485.7 1130.31Z" fill="#D6F6FF"/>
<path d="M1485.7 1130.31H1482.17C1482.17 1146.93 1475.45 1161.94 1464.56 1172.84C1453.67 1183.73 1438.65 1190.45 1422.03 1190.45C1405.42 1190.45 1390.4 1183.73 1379.51 1172.84C1368.62 1161.94 1361.89 1146.93 1361.89 1130.31C1361.89 1113.7 1368.62 1098.68 1379.51 1087.79C1390.4 1076.9 1405.42 1070.17 1422.03 1070.17C1438.65 1070.17 1453.67 1076.9 1464.56 1087.79C1475.45 1098.68 1482.17 1113.7 1482.17 1130.31H1485.7H1489.23C1489.23 1093.2 1459.14 1063.12 1422.03 1063.12C1384.92 1063.12 1354.84 1093.2 1354.84 1130.31C1354.84 1167.43 1384.92 1197.51 1422.03 1197.51C1459.14 1197.51 1489.23 1167.43 1489.23 1130.31H1485.7Z" fill="#3C3C3D"/>
<path d="M1360.07 1112.65C1362.66 1101.75 1368.24 1092.01 1375.9 1084.34C1386.69 1073.56 1401.55 1066.9 1418.01 1066.9C1418.07 1066.9 1418.13 1066.9 1418.2 1066.9C1418.2 1066.9 1418.2 1066.9 1418.21 1066.9C1418.27 1066.9 1418.33 1066.9 1418.39 1066.9H1418.39C1419.6 1066.91 1420.81 1066.95 1422 1067.03C1422.03 1067.03 1422.06 1067.04 1422.09 1067.04C1422.11 1067.04 1422.14 1067.04 1422.16 1067.04C1422.2 1067.04 1422.24 1067.05 1422.28 1067.05C1422.29 1067.05 1422.31 1067.05 1422.32 1067.05C1433.45 1067.85 1443.72 1071.71 1452.31 1077.81C1443.24 1073.14 1432.95 1070.51 1422.03 1070.51C1393.88 1070.51 1369.82 1087.97 1360.07 1112.65Z" fill="#565D63"/>
<path d="M1481.07 1126.44H1477.55C1477.55 1142.89 1470.89 1157.75 1460.11 1168.54C1449.32 1179.32 1434.46 1185.98 1418.01 1185.98C1401.55 1185.98 1386.69 1179.32 1375.91 1168.54C1365.13 1157.75 1358.47 1142.89 1358.47 1126.44C1358.47 1109.99 1365.13 1095.12 1375.91 1084.34C1386.69 1073.56 1401.55 1066.9 1418.01 1066.9C1434.46 1066.9 1449.32 1073.56 1460.11 1084.34C1470.89 1095.12 1477.55 1109.99 1477.55 1126.44H1481.07H1484.6C1484.6 1089.66 1454.79 1059.85 1418.01 1059.84C1381.23 1059.85 1351.42 1089.66 1351.41 1126.44C1351.42 1163.22 1381.23 1193.03 1418.01 1193.03C1454.79 1193.03 1484.6 1163.22 1484.6 1126.44H1481.07Z" fill="#3C3C3D"/>
<path d="M1358.12 1155.43C1354.01 1146.95 1351.57 1137.46 1351.42 1127.42C1351.42 1127.41 1351.42 1127.41 1351.42 1127.41C1351.42 1127.36 1351.42 1127.3 1351.42 1127.25C1351.42 1127.21 1351.42 1127.16 1351.42 1127.11C1351.42 1127.1 1351.42 1127.09 1351.42 1127.07C1351.42 1127.01 1351.41 1126.94 1351.41 1126.88C1351.41 1126.87 1351.41 1126.87 1351.41 1126.87C1351.41 1126.8 1351.41 1126.73 1351.41 1126.66C1351.41 1126.59 1351.41 1126.51 1351.41 1126.44C1351.42 1089.66 1381.23 1059.85 1418.01 1059.84C1418.07 1059.84 1418.13 1059.84 1418.19 1059.84C1418.24 1059.84 1418.29 1059.84 1418.34 1059.84C1418.35 1059.84 1418.36 1059.84 1418.38 1059.84C1448.85 1060.02 1474.41 1080.66 1482.15 1108.71L1475.58 1111.19C1472.85 1100.88 1467.43 1091.67 1460.11 1084.34C1450.27 1074.51 1437.04 1068.11 1422.32 1067.06C1422.31 1067.05 1422.3 1067.05 1422.29 1067.05C1422.25 1067.05 1422.2 1067.04 1422.17 1067.04C1422.14 1067.04 1422.12 1067.04 1422.09 1067.04C1422.06 1067.04 1422.03 1067.03 1422 1067.03C1420.81 1066.95 1419.6 1066.91 1418.39 1066.9H1418.39C1418.33 1066.9 1418.27 1066.9 1418.21 1066.9C1418.2 1066.9 1418.2 1066.9 1418.2 1066.9C1418.13 1066.9 1418.07 1066.9 1418.01 1066.9C1401.55 1066.9 1386.69 1073.56 1375.91 1084.34C1365.13 1095.12 1358.47 1109.99 1358.47 1126.44C1358.47 1135.98 1360.71 1144.98 1364.68 1152.96L1358.12 1155.43Z" fill="#565D63"/>
<path d="M1422.28 1067.05C1422.24 1067.05 1422.2 1067.04 1422.16 1067.04C1422.2 1067.04 1422.25 1067.05 1422.28 1067.05ZM1422.09 1067.04C1422.06 1067.04 1422.03 1067.03 1422 1067.03C1422.03 1067.03 1422.06 1067.04 1422.09 1067.04Z" fill="#59BFDC"/>
<path d="M1422.93 1353.91C1354.95 1508.64 1422.93 1642.4 1422.93 1642.4C1422.93 1642.4 1490.91 1508.64 1422.93 1353.91Z" fill="#E12125"/>
</g>
</g>
<defs>
<linearGradient id="paint0_linear_5_81" x1="1411" y1="1725" x2="1728.15" y2="2210.76" gradientUnits="userSpaceOnUse">
<stop stop-color="#EC9A00"/>
<stop offset="1" stop-color="#FFE81E"/>
</linearGradient>
<linearGradient id="paint1_linear_5_81" x1="1422.93" y1="1571.75" x2="1422.93" y2="1797.79" gradientUnits="userSpaceOnUse">
<stop stop-color="#F5B655"/>
<stop offset="0.00558659" stop-color="#F5B655"/>
<stop offset="1" stop-color="#EE502D"/>
</linearGradient>
<linearGradient id="paint2_linear_5_81" x1="1422.03" y1="1520.8" x2="1725.36" y2="1096.35" gradientUnits="userSpaceOnUse">
<stop stop-color="#EC9A00"/>
<stop offset="1" stop-color="#FFE81E"/>
</linearGradient>
<clipPath id="clip0_5_81">
<rect width="2829" height="2178" fill="white"/>
</clipPath>
<clipPath id="clip1_5_81">
<rect width="2822" height="2822" fill="white"/>
</clipPath>
</defs>
</svg>
